<svg id="flat.2" xmlns="http://www.w3.org/2000/svg" viewBox="0 0 744 703.57"><defs><style>.cls-1{fill:#e6e6e6;}.cls-2{fill:#666;}.cls-3{fill:#ccc;}.cls-4{fill:#ff8200;}.cls-5{fill:#4d4d4d;}.cls-6{fill:#f2f2f2;}</style></defs><title>bike</title><path class="cls-1" d="M592.12,387.94a92.22,92.22,0,1,1-92.22,92.22,92.33,92.33,0,0,1,92.22-92.22m0-12.37a104.6,104.6,0,1,0,104.6,104.6,104.6,104.6,0,0,0-104.6-104.6Z"/><path class="cls-2" d="M592.12,375.57a104.6,104.6,0,1,1-104.6,104.6,104.6,104.6,0,0,1,104.6-104.6m0-13.86A118.45,118.45,0,1,0,710.57,480.16,118.59,118.59,0,0,0,592.12,361.71Z"/><path class="cls-1" d="M272.59,537a7.63,7.63,0,0,1-7.07-10.45A130.18,130.18,0,0,0,90.83,359.81a7.62,7.62,0,1,1-6.31-13.87,144.2,144.2,0,0,1,60.14-13c80.15,0,145.35,65.2,145.35,145.35a144.63,144.63,0,0,1-10.34,53.95A7.62,7.62,0,0,1,272.59,537Z"/><circle class="cls-1" cx="141.89" cy="480.16" r="33.16"/><path class="cls-3" d="M141.89,516.79a36.62,36.62,0,1,1,36.62-36.62A36.67,36.67,0,0,1,141.89,516.79Zm0-66.32a29.7,29.7,0,1,0,29.7,29.7A29.73,29.73,0,0,0,141.89,450.47Z"/><path class="cls-1" d="M141.89,387.94a92.22,92.22,0,1,1-92.22,92.22,92.33,92.33,0,0,1,92.22-92.22m0-12.37a104.6,104.6,0,1,0,104.6,104.6,104.6,104.6,0,0,0-104.6-104.6Z"/><path class="cls-2" d="M141.89,375.57a104.6,104.6,0,1,1-104.6,104.6,104.6,104.6,0,0,1,104.6-104.6m0-13.86A118.45,118.45,0,1,0,260.34,480.16,118.59,118.59,0,0,0,141.89,361.71Z"/><path class="cls-4" d="M400.69,457.57s20-71.44,19-70.75a71.54,71.54,0,0,1-87.52-5.62l-21.53,21.52,67.9,65.55a3.46,3.46,0,0,1-4.81,5L206.4,311.87,145.15,482.19a3.46,3.46,0,1,1-6.52-2.34L232.4,219.12a8.72,8.72,0,0,0-2.84-9.8l-14.19-11.13a15.66,15.66,0,0,1,9.67-28h70a3.46,3.46,0,0,1,0,6.93H225a8.73,8.73,0,0,0-5.39,15.6l14.19,11.13a15.64,15.64,0,0,1,5.08,17.58L227.1,254.32l104,116.11q1.1,1.23,2.24,2.38l2.25,2.17a64.68,64.68,0,0,0,83,4.12l4-3,25.09-93C468.22,286.34,492,289,492,289l-13,43.69L591.4,478.9a3.46,3.46,0,1,1-5.49,4.22L477.41,339.45,446.27,455.87ZM242.08,336.65l63.55,61.26,21.55-21.52-48.6-54.21-54.15-60.44-15.47,43Z"/><path class="cls-4" d="M141.89,487.94a6.93,6.93,0,0,1-6.52-9.27l93.77-260.72a5.25,5.25,0,0,0-1.71-5.9l-14.19-11.13A19.12,19.12,0,0,1,225,166.75h70a6.93,6.93,0,0,1,0,13.86H225a5.27,5.27,0,0,0-3.25,9.41L236,201.15a19.1,19.1,0,0,1,6.21,21.47l-11.12,30.93L333.71,368.12q1,1.16,2.13,2.26L338,372.5a61.49,61.49,0,0,0,78.48,3.84l3-2.27,25.59-94.85,3.07.48c20.25,3.17,43.92,5.83,44.16,5.86l4.12.46-13.69,46L594.14,476.79a6.94,6.94,0,0,1-1.27,9.71,6.93,6.93,0,0,1-9.72-1.27l-104.24-138-30,112-52.89,2,1.28-4.57c5.51-19.67,13.63-49,17.17-62.7a74.94,74.94,0,0,1-82.17-8l-16.79,16.78,65.37,63.1a6.93,6.93,0,0,1,.18,9.79,6.93,6.93,0,0,1-9.8.18L207.85,318.08,148.41,483.36A7,7,0,0,1,141.89,487.94Zm66.32-179.13.59.57L376.12,470.76l-70.44-68,13.55-13.54-13.56,13.54ZM419.76,382.6l2,1.41c2,1.45,1.57,3.24.72,6.8-.48,2-1.2,4.79-2.08,8.15-1.55,5.9-3.77,14.09-6.58,24.33-3.32,12.09-6.71,24.25-8.49,30.64l38.28-1.42,31.78-118.8-.24-.31L487.47,292c-7.21-.85-22.75-2.75-37.27-5l-24.6,91.17-4.94,3.7a68.44,68.44,0,0,1-87.39-4.35L331,375.3c-.43-.44-.84-.86-1.24-1.29l2.23,2.49.06-.06,2.44,2.15a68.08,68.08,0,0,0,83.3,5.35ZM244.49,334.15l61.1,58.9,16.83-16.8L225.73,268.36,213,303.78Zm-14.19-99-8.15,22.65Zm-17.46-49.32a12.31,12.31,0,0,0,.37,3A12.31,12.31,0,0,1,212.84,185.87Z"/><circle class="cls-4" cx="141.89" cy="480.16" r="16.06"/><path class="cls-4" d="M723.17,481.09a137.4,137.4,0,0,0-137.4-137.4c-32,0-60.2,10.32-83.54,28.62l81.32,111.2Z"/><path class="cls-5" d="M401.34,251.54h0a8.52,8.52,0,0,0,8.52,8.52H425a14.9,14.9,0,0,1,14.9,14.9h0a14.9,14.9,0,0,0,14.9,14.9h47.48a12.15,12.15,0,0,0,9.17-4.18L531,263.13a12.15,12.15,0,0,0,3-8h0A12.15,12.15,0,0,0,521.86,243h-112A8.52,8.52,0,0,0,401.34,251.54Z"/><rect class="cls-5" x="257.41" y="162.37" width="89.14" height="23.68" rx="4.83" ry="4.83" transform="translate(603.97 348.41) rotate(-180)"/><path class="cls-1" d="M618.05,489.67a32.25,32.25,0,0,1-24.81,23L412.05,548.55c-12.23,2.42-25.23.43-35.41-6.77a46.36,46.36,0,0,1,26.74-84.24l206.16-7.08a14.94,14.94,0,0,1,14.17,19Zm-69.42,8.09c1.67-.39,3.37-.62,5.06-.9a11.54,11.54,0,0,0-1.87-22.92l-85.94,1.71A20.75,20.75,0,0,0,448,506.86c4.47,7.63,13.61,11.21,22.25,9.33Z"/><path class="cls-3" d="M402.18,553a47.63,47.63,0,0,1-27.54-8.38,49.83,49.83,0,0,1,28.74-90.53L609.5,447h.09A18.41,18.41,0,0,1,627,470.36l-5.65,20.24A35.53,35.53,0,0,1,593.91,516L412.73,552A54.45,54.45,0,0,1,402.18,553Zm207.38-99.06L403.49,461A42.9,42.9,0,0,0,378.64,539c8.9,6.29,20.83,8.55,32.74,6.2l181.19-35.92a28.64,28.64,0,0,0,22.15-20.5l5.65-20.24a11.48,11.48,0,0,0-10.8-14.56Zm-144,66.22A23.65,23.65,0,0,1,445,508.61a24.21,24.21,0,0,1,20.9-36.43l85.87-1.7a15,15,0,0,1,2.5,29.8l-1.11.18c-1.3.2-2.53.4-3.72.68L471,519.56A25.59,25.59,0,0,1,465.54,520.15Zm86.28-42.74-85.87,1.7a17.28,17.28,0,0,0-15,26c3.59,6.12,11.2,9.29,18.52,7.69l78.37-18.41c1.44-.34,2.85-.56,4.22-.78l1.07-.17a8.07,8.07,0,0,0-1.31-16Z"/><path class="cls-3" d="M405.88,478.3A25.66,25.66,0,1,1,380.22,504a25.66,25.66,0,0,1,25.66-25.66"/><rect class="cls-6" x="390.49" y="342.76" width="113.55" height="50.39" transform="translate(-24 704.61) rotate(-74.98)"/><path class="cls-2" d="M446.89,411.36l-4.5-1.21L436,400a3.17,3.17,0,0,0-2-1.71,1.88,1.88,0,0,0-2.53,1.41,1.93,1.93,0,0,0,1.56,2.57l-1.34,5c-4.25-1.14-5.73-5-4.72-8.76,1.08-4,4.32-6.27,8.39-5.18,2.28.61,3.24,1.88,4.6,4.1l4.08,6.63,2.1-7.84,4.5,1.21Z"/><path class="cls-2" d="M453.44,387.68c-1,3.59-4.15,6.35-8.61,5.15l-8.51-2.28c-4.47-1.2-5.84-5.18-4.88-8.77s4.15-6.35,8.61-5.15l8.51,2.28C453,380.11,454.4,384.09,453.44,387.68Zm-14.73-6.07a2.06,2.06,0,1,0-1.06,4l8.54,2.29a2.06,2.06,0,1,0,1.06-4Z"/><path class="cls-2" d="M457.5,371.83l-16.32-4.38,2.77,5.69-5.32-1.43-2.77-5.7,1.34-5,21.64,5.8Z"/><path class="cls-2" d="M462.51,353.85c-1,3.59-3.85,6.69-8.71,5.38l1.34-5a2.3,2.3,0,1,0,1.16-4.45,2.31,2.31,0,0,0-2.9,1.7l-.19.7L448.9,351l.19-.7a2.13,2.13,0,1,0-2.57,1.33l-1.34,5c-4.07-1.09-5.7-4.85-4.67-8.71,1.08-4,4.54-6.24,8.28-5.24a4.76,4.76,0,0,1,3.62,3.38,5.51,5.51,0,0,1,5.38-1.23C462.32,346.08,463.53,350.06,462.51,353.85Z"/><path class="cls-2" d="M467,337c-1.07,4-4.11,6.68-8.6,5.48a5.8,5.8,0,0,1-4-3.68,5.64,5.64,0,0,1-4.88,1.07c-4.1-1.1-5.52-5.06-4.52-8.77s4.2-6.43,8.3-5.33a5.63,5.63,0,0,1,3.69,3.37,5.8,5.8,0,0,1,5.3-1.18C466.83,329.15,468.11,333,467,337Zm-17.5-4.7a2.14,2.14,0,1,0,2.62-1.51A2.12,2.12,0,0,0,449.53,332.29Zm8.45,2.27a2.36,2.36,0,1,0,2.89-1.67A2.38,2.38,0,0,0,458,334.56Z"/><path class="cls-2" d="M346.08,567a3.46,3.46,0,0,1-2.45-5.92l59.8-59.6a3.46,3.46,0,0,1,4.89,4.91L348.52,566A3.46,3.46,0,0,1,346.08,567Z"/><rect class="cls-5" x="319.29" y="553.77" width="53.57" height="19.57" rx="9.79" ry="9.79"/></svg>