<svg id="flat.2" xmlns="http://www.w3.org/2000/svg" viewBox="0 0 360 703.57"><defs><style>.cls-1{fill:#e6e6e6;}.cls-2,.cls-3{fill:#ccc;}.cls-2{opacity:0.25;}.cls-4{fill:#00323a;}.cls-5{fill:#00503a;}.cls-6{fill:#006b3a;}.cls-7{fill:#006837;}.cls-8{fill:#fff;}.cls-9{fill:#666;}</style></defs><title>bin</title><rect class="cls-1" x="48.65" y="534.54" width="261.54" height="62.12" transform="translate(-3.37 1.08) rotate(-0.34)"/><rect class="cls-2" x="179.42" y="534.15" width="130.77" height="62.12" transform="translate(-3.36 1.47) rotate(-0.34)"/><rect class="cls-3" x="48.35" y="496.77" width="261.54" height="37.77" transform="translate(-3.07 1.08) rotate(-0.34)"/><rect class="cls-4" x="79.44" y="182.38" width="196.85" height="336.82" transform="translate(-2.09 1.07) rotate(-0.34)"/><polygon class="cls-5" points="78.44 182.97 275.28 181.8 80.44 519.79 78.44 182.97"/><rect class="cls-6" x="78.72" y="250.14" width="197.01" height="15.12" transform="translate(-1.53 1.06) rotate(-0.34)"/><rect class="cls-6" x="80.05" y="474.34" width="197.01" height="15.12" transform="translate(-2.87 1.07) rotate(-0.34)"/><path class="cls-6" d="M80.19,497.36l-14.64.09-2-334.88c-.1-16.14-12.27-29.2-27.13-29.11l-20,.12h0A14.64,14.64,0,0,1,31,118.85l5.35,0c22.93-.14,41.71,19.45,41.85,43.66Z"/><path class="cls-6" d="M291.79,496.1l-14.64.09-2-334.88a43.91,43.91,0,0,1,43.64-44.17l6.7,0a14.64,14.64,0,0,1,14.72,14.55h0l-21.34.13a29.27,29.27,0,0,0-29.1,29.44Z"/><rect class="cls-6" x="94.28" y="133.06" width="15.12" height="364.16" transform="matrix(1, -0.01, 0.01, 1, -1.88, 0.61)"/><rect class="cls-6" x="124.51" y="132.88" width="15.12" height="364.16" transform="translate(-1.87 0.79) rotate(-0.34)"/><rect class="cls-6" x="154.75" y="132.7" width="15.12" height="364.16" transform="matrix(1, -0.01, 0.01, 1, -1.87, 0.97)"/><rect class="cls-6" x="184.98" y="132.52" width="15.12" height="364.16" transform="translate(-1.87 1.15) rotate(-0.34)"/><rect class="cls-6" x="215.22" y="132.34" width="15.12" height="364.16" transform="translate(-1.87 1.33) rotate(-0.34)"/><rect class="cls-6" x="245.45" y="132.16" width="15.12" height="364.16" transform="translate(-1.87 1.51) rotate(-0.34)"/><path class="cls-6" d="M340.23,131.64h0a14.64,14.64,0,0,0-14.72-14.55L30.83,118.85a14.64,14.64,0,0,0-14.55,14.72h0Z"/><circle class="cls-7" cx="254" cy="481.45" r="3.17" transform="translate(-2.86 1.52) rotate(-0.34)"/><rect class="cls-8" x="158.29" y="548.15" width="43.73" height="36.61" transform="translate(-3.37 1.08) rotate(-0.34)"/><path class="cls-9" d="M169.71,577.38l-.09-15.72-4.43,3.89,0-5.12,4.43-3.89,4.8,0,.12,20.84Z"/><path class="cls-9" d="M192,569l-4,8.28-5.27,0,4.08-8.19a3.47,3.47,0,0,1-1.17.15c-2.55,0-5.57-2.13-5.6-6.26,0-4.42,3.15-6.72,6.9-6.74s6.95,2.24,7,6.66C194,565.06,193,567,192,569Zm-5-8.4a2.38,2.38,0,1,0,2.15,2.36A2.13,2.13,0,0,0,187,560.59Z"/></svg>