<svg id="flat.2" xmlns="http://www.w3.org/2000/svg" viewBox="0 0 408 703.57"><defs><style>.cls-1{fill:#e6e6e6;}.cls-2{fill:#b3b3b3;}.cls-3{fill:#ccc;opacity:0.25;}.cls-4,.cls-7{fill:#3bd15e;}.cls-5{fill:#31ad48;}.cls-6{fill:#40dd5e;}.cls-7{opacity:0.5;}.cls-8{fill:#ffd200;}.cls-9{fill:#666;}</style></defs><title>box-one</title><rect class="cls-1" x="32.01" y="527.54" width="344.96" height="66.34"/><path class="cls-2" d="M379.34,596.25H29.64V525.17h349.7Zm-345-4.74H374.6v-61.6H34.38Z"/><polyline class="cls-3" points="376.97 593.88 376.97 527.54 204.02 527.54 204.02 593.88"/><polyline class="cls-4" points="376.5 490 376.5 128.46 31.54 128.46 31.54 490"/><polygon class="cls-5" points="378.87 490 374.13 490 374.13 130.83 33.91 130.83 33.91 490 29.17 490 29.17 126.09 378.87 126.09 378.87 490"/><rect class="cls-1" x="22.53" y="490.01" width="363.44" height="37.43"/><path class="cls-2" d="M388.34,529.81H20.17V487.64H388.34ZM24.9,525.07H383.6v-32.7H24.9Z"/><rect class="cls-6" x="50.49" y="147.42" width="144.52" height="323.16"/><path class="cls-5" d="M197.38,472.95H48.12V145H197.38ZM52.86,468.21H192.64V149.79H52.86Z"/><rect class="cls-6" x="213.97" y="147.42" width="143.57" height="323.16"/><path class="cls-5" d="M359.9,473H211.59l0-327.9H359.92Zm-143.57-4.75H355.16l0-318.42H216.35Z"/><rect class="cls-7" x="122.75" y="149.7" width="69.94" height="318.45"/><rect class="cls-7" x="284.85" y="149.7" width="69.94" height="318.45"/><polyline class="cls-3" points="383.69 524.95 383.69 492.27 204.02 492.27 204.02 524.95"/><polygon class="cls-5" points="178.9 185.09 174.16 185.09 174.16 168.85 72.29 168.85 72.29 185.09 67.55 185.09 67.55 164.12 178.9 164.12 178.9 185.09"/><polygon class="cls-5" points="341.43 185.09 336.69 185.09 336.69 168.85 234.82 168.85 234.82 185.09 230.08 185.09 230.08 164.12 341.43 164.12 341.43 185.09"/><rect class="cls-8" x="71.81" y="419.89" width="77.88" height="29.82"/><path class="cls-9" d="M88.2,440a5.61,5.61,0,0,1-7.68,0c-1.42-1.42-1.36-3.32-1.36-5.34s-.06-3.92,1.36-5.34a5.36,5.36,0,0,1,9,3H86.21a1.75,1.75,0,0,0-1.93-1.52,1.62,1.62,0,0,0-1.31.59c-.3.4-.49.85-.49,3.32s.19,2.94.49,3.34a1.61,1.61,0,0,0,1.31.57,1.93,1.93,0,0,0,1.48-.53,2,2,0,0,0,.51-1.44v-.19h-2v-2.77h5.29v1.88C89.56,437.72,89.22,439,88.2,440Z"/><path class="cls-9" d="M99.38,441.43l-3.11-5.53-1.14,1.31v4.23H91.86V427.94h3.28v4.78l3.9-4.78h4.06l-4.61,5.46,4.76,8Z"/><path class="cls-9" d="M120.7,439.65v1.78h-3v-1.78h-5.59v-3l4.47-8.76H120l-4.47,8.76h2.18v-1.78h3v1.78h1v3Z"/><path class="cls-9" d="M123.21,441.43v-2.8l4.89-5.31a1.91,1.91,0,0,0,.68-1.44,1.14,1.14,0,0,0-1.21-1.25,1.16,1.16,0,0,0-1.25,1.31h-3.11a4,4,0,0,1,4.36-4.11c2.5,0,4.32,1.53,4.32,4.07,0,1.42-.59,2.18-1.67,3.32L127,438.63h4.89v2.8Z"/><path class="cls-9" d="M137.32,441.43V431.26l-2.88,2.5v-3.32l2.88-2.5h3.11v13.49Z"/><rect class="cls-5" x="156.16" y="350.7" width="19.9" height="4.74"/><rect class="cls-5" x="156.16" y="303.31" width="19.9" height="4.74"/><rect class="cls-5" x="163.27" y="305.68" width="4.74" height="47.38"/><rect class="cls-5" x="232.92" y="350.7" width="19.9" height="4.74"/><rect class="cls-5" x="232.92" y="303.31" width="19.9" height="4.74"/><rect class="cls-5" x="240.03" y="305.68" width="4.74" height="47.38"/></svg>