<svg id="flat.2" xmlns="http://www.w3.org/2000/svg" viewBox="0 0 220 545.57"><defs><style>.cls-1{fill:#e6e6e6;}.cls-2{fill:#b3b3b3;}.cls-3{fill:#f2f2f2;}.cls-4{fill:#ccc;opacity:0.25;}.cls-5{fill:#ffd200;}.cls-6{fill:#666;}</style></defs><title>box-three</title><rect class="cls-1" x="48.19" y="123.36" width="132.38" height="398.04"/><path class="cls-2" d="M182.74,523.57H46V121.18H182.74ZM50.37,519.22h128V125.53h-128Z"/><rect class="cls-3" x="39.46" y="105.96" width="149.83" height="17.4"/><path class="cls-2" d="M191.47,125.53H37.29V103.78H191.47ZM41.64,121.18H187.12v-13H41.64Z"/><rect class="cls-3" x="65.56" y="140.76" width="97.64" height="134.88"/><path class="cls-2" d="M165.37,277.82h-102V138.58h102Zm-97.64-4.35H161V142.93H67.74Z"/><rect class="cls-3" x="65.56" y="292.4" width="97.64" height="211.74"/><path class="cls-2" d="M165.37,506.32h-102V290.23h102ZM67.74,502H161V294.58H67.74Z"/><rect class="cls-4" x="114.38" y="140.76" width="48.82" height="134.88"/><polygon class="cls-4" points="163.2 504.15 114.38 504.15 114.38 292.4 163.2 292.94 163.2 504.15"/><polygon class="cls-2" points="152.32 163.05 147.97 163.05 147.97 156.53 80.79 156.53 80.79 163.05 76.44 163.05 76.44 152.18 152.32 152.18 152.32 163.05"/><polygon class="cls-2" points="152.32 322.81 147.97 322.81 147.97 316.29 80.79 316.29 80.79 322.81 76.44 322.81 76.44 311.94 152.32 311.94 152.32 322.81"/><polygon class="cls-2" points="152.32 355.19 147.97 355.19 147.97 348.67 80.79 348.67 80.79 355.19 76.44 355.19 76.44 344.32 152.32 344.32 152.32 355.19"/><polygon class="cls-2" points="152.32 387.42 147.97 387.42 147.97 380.9 80.79 380.9 80.79 387.42 76.44 387.42 76.44 376.55 152.32 376.55 152.32 387.42"/><polygon class="cls-2" points="152.32 419.81 147.97 419.81 147.97 413.28 80.79 413.28 80.79 419.81 76.44 419.81 76.44 408.93 152.32 408.93 152.32 419.81"/><polygon class="cls-2" points="152.32 451.85 147.97 451.85 147.97 445.32 80.79 445.32 80.79 451.85 76.44 451.85 76.44 440.97 152.32 440.97 152.32 451.85"/><polygon class="cls-2" points="152.32 484.23 147.97 484.23 147.97 477.7 80.79 477.7 80.79 484.23 76.44 484.23 76.44 473.35 152.32 473.35 152.32 484.23"/><rect class="cls-5" x="78.63" y="235.42" width="71.49" height="27.37"/><path class="cls-6" d="M93.67,253.91a5.15,5.15,0,0,1-7,0c-1.3-1.3-1.25-3-1.25-4.91s-.05-3.6,1.25-4.91a4.92,4.92,0,0,1,8.28,2.71H91.85a1.61,1.61,0,0,0-1.77-1.39,1.49,1.49,0,0,0-1.2.54c-.28.37-.45.78-.45,3s.17,2.7.45,3.06a1.48,1.48,0,0,0,1.2.52,1.78,1.78,0,0,0,1.36-.49,1.85,1.85,0,0,0,.47-1.32v-.17H90.07v-2.54h4.85v1.72C94.93,251.79,94.61,253,93.67,253.91Z"/><path class="cls-6" d="M103.94,255.2l-2.85-5.08-1,1.2v3.88H97V242.81h3v4.38l3.58-4.38h3.72l-4.23,5,4.37,7.38Z"/><path class="cls-6" d="M119.43,255.2v-9.34l-2.64,2.3v-3l2.64-2.3h2.85V255.2Z"/><path class="cls-6" d="M130.11,255.2H127l3.86-9.81h-2.64v1.95h-2.71v-4.52H134v2.57Z"/><path class="cls-6" d="M139.35,255.3a3.83,3.83,0,0,1-4.12-4,8.39,8.39,0,0,1,1.18-3.6l2.38-4.91h3.13l-2.45,4.85a2.06,2.06,0,0,1,.7-.09,3.49,3.49,0,0,1,3.3,3.74A3.83,3.83,0,0,1,139.35,255.3Zm0-5.39a1.42,1.42,0,1,0,1.27,1.41A1.27,1.27,0,0,0,139.35,249.91Z"/></svg>