<svg id="flat.2" xmlns="http://www.w3.org/2000/svg" viewBox="0 0 356 488.88"><defs><style>.cls-1{fill:#e6e6e6;}.cls-2{fill:#b3b3b3;}.cls-3{fill:#f2f2f2;}.cls-4{fill:#ccc;opacity:0.25;}.cls-5{fill:#ffd200;}.cls-6{fill:#666;}</style></defs><title>box-two</title><rect class="cls-1" x="38.7" y="169.11" width="276.26" height="260.28"/><path class="cls-2" d="M317.76,432.19H35.9V166.31H317.76ZM41.5,426.59H312.16V171.91H41.5Z"/><rect class="cls-3" x="176.83" y="191.08" width="115.74" height="156.93"/><path class="cls-2" d="M295.37,350.81H174V188.28H295.37Zm-115.74-5.6H289.77V193.88H179.63Z"/><rect class="cls-3" x="61.09" y="191.08" width="115.74" height="156.93"/><path class="cls-2" d="M179.63,350.81H58.29V188.28H179.63Zm-115.74-5.6H174V193.88H63.89Z"/><rect class="cls-4" x="118.96" y="191.08" width="57.87" height="156.93"/><rect class="cls-4" x="233.71" y="191.08" width="57.87" height="156.93"/><rect class="cls-3" x="61.09" y="348.01" width="231.47" height="58.56"/><path class="cls-2" d="M295.37,409.37H58.29V345.21H295.37Zm-231.47-5.6H289.77v-53H63.89Z"/><polygon class="cls-2" points="278.71 219.08 273.12 219.08 273.12 210.68 208.28 210.68 208.28 219.08 202.68 219.08 202.68 205.08 278.71 205.08 278.71 219.08"/><rect class="cls-4" x="118.96" y="348.01" width="173.61" height="58.56"/><polygon class="cls-2" points="278.57 376.01 272.97 376.01 272.97 367.61 80.69 367.61 80.69 376.01 75.09 376.01 75.09 362.01 278.57 362.01 278.57 376.01"/><rect class="cls-5" x="72.95" y="203.15" width="92.02" height="35.23"/><path class="cls-6" d="M92.32,226.95a6.64,6.64,0,0,1-9.07,0c-1.68-1.68-1.61-3.92-1.61-6.32s-.07-4.64,1.61-6.32a6.34,6.34,0,0,1,10.66,3.49H90A2.07,2.07,0,0,0,87.68,216a1.92,1.92,0,0,0-1.55.69c-.36.47-.58,1-.58,3.92s.22,3.47.58,3.94a1.91,1.91,0,0,0,1.55.67,2.28,2.28,0,0,0,1.75-.63,2.38,2.38,0,0,0,.6-1.7v-.22H87.68v-3.27h6.25v2.22C93.93,224.21,93.53,225.71,92.32,226.95Z"/><path class="cls-6" d="M105.53,228.6l-3.67-6.54-1.34,1.55v5H96.64V212.65h3.88v5.65l4.61-5.65h4.79l-5.44,6.45,5.62,9.5Z"/><path class="cls-6" d="M130.72,226.5v2.11h-3.49V226.5h-6.61V223l5.29-10.35h4L124.65,223h2.58V220.9h3.49V223h1.19v3.49Z"/><path class="cls-6" d="M137.91,228.6v-12l-3.41,3v-3.92l3.41-3h3.67V228.6Z"/><path class="cls-6" d="M146.13,228.6v-3.32l5.78-6.27a2.26,2.26,0,0,0,.81-1.7,1.34,1.34,0,0,0-1.43-1.48,1.38,1.38,0,0,0-1.48,1.55h-3.67c0-3.14,2.37-4.86,5.15-4.86,3,0,5.11,1.81,5.11,4.82,0,1.68-.69,2.58-2,3.92l-3.81,4h5.78v3.32Z"/></svg>