<svg xmlns="http://www.w3.org/2000/svg" viewBox="0 0 360.5 240.86"><defs><style>.cls-1{fill:#00afca;}.cls-2,.cls-3{fill:#fec50c;}.cls-3{stroke:#00afca;stroke-width:0.38px;}.cls-4{fill:#fff;}.cls-5{fill:#d52b1e;}.cls-6{fill:#0039a6;}.cls-7{fill:#d92a3a;}.cls-8{fill:#fdfdfd;}.cls-9{fill:#01368f;}</style></defs><title>flag-en2</title><g id="Layer_2" data-name="Layer 2"><circle class="cls-1" cx="186.32" cy="120.43" r="113.67"/><circle class="cls-2" cx="186.32" cy="107.06" r="29.03"/><g id="r4"><path id="r" class="cls-2" d="M327.55,95.19a2.18,2.18,0,0,0,2.37-2.39c0-1.73-2.37-9.95-2.37-9.95s-2.37,8.22-2.37,9.95A2.17,2.17,0,0,0,327.55,95.19Z" transform="translate(-141.23 -21.12)"/><path id="r-2" data-name="r" class="cls-2" d="M360.54,128.18a2.18,2.18,0,0,0,2.39,2.37c1.73,0,9.95-2.37,9.95-2.37s-8.22-2.37-9.95-2.37A2.17,2.17,0,0,0,360.54,128.18Z" transform="translate(-141.23 -21.12)"/><path id="r-3" data-name="r" class="cls-2" d="M327.55,161.17a2.18,2.18,0,0,0-2.37,2.39c0,1.73,2.37,9.95,2.37,9.95s2.37-8.22,2.37-9.95A2.17,2.17,0,0,0,327.55,161.17Z" transform="translate(-141.23 -21.12)"/><path id="r-4" data-name="r" class="cls-2" d="M294.56,128.18a2.18,2.18,0,0,0-2.39-2.37c-1.73,0-9.95,2.37-9.95,2.37s8.22,2.37,9.95,2.37A2.17,2.17,0,0,0,294.56,128.18Z" transform="translate(-141.23 -21.12)"/></g><g id="r4-2" data-name="r4"><path id="r-5" data-name="r" class="cls-2" d="M340.17,97.7a2.18,2.18,0,0,0,3.11-1.3c.66-1.59,1.61-10.1,1.61-10.1s-5.34,6.69-6,8.28A2.17,2.17,0,0,0,340.17,97.7Z" transform="translate(-141.23 -21.12)"/><path id="r-6" data-name="r" class="cls-2" d="M358,140.81a2.18,2.18,0,0,0,1.3,3.11c1.59.66,10.1,1.61,10.1,1.61s-6.69-5.34-8.28-6A2.17,2.17,0,0,0,358,140.81Z" transform="translate(-141.23 -21.12)"/><path id="r-7" data-name="r" class="cls-2" d="M314.92,158.66a2.18,2.18,0,0,0-3.11,1.3c-.66,1.59-1.61,10.1-1.61,10.1s5.34-6.69,6-8.28A2.17,2.17,0,0,0,314.92,158.66Z" transform="translate(-141.23 -21.12)"/><path id="r-8" data-name="r" class="cls-2" d="M297.07,115.56a2.18,2.18,0,0,0-1.3-3.11c-1.59-.66-10.1-1.61-10.1-1.61s6.69,5.34,8.28,6A2.17,2.17,0,0,0,297.07,115.56Z" transform="translate(-141.23 -21.12)"/></g><g id="r4-3" data-name="r4"><path id="r-9" data-name="r" class="cls-2" d="M350.87,104.85a2.18,2.18,0,0,0,3.37,0c1.22-1.22,5.35-8.71,5.35-8.71s-7.49,4.13-8.71,5.35A2.17,2.17,0,0,0,350.87,104.85Z" transform="translate(-141.23 -21.12)"/><path id="r-10" data-name="r" class="cls-2" d="M350.87,151.51a2.18,2.18,0,0,0,0,3.37c1.22,1.22,8.71,5.35,8.71,5.35s-4.13-7.49-5.35-8.71A2.17,2.17,0,0,0,350.87,151.51Z" transform="translate(-141.23 -21.12)"/><path id="r-11" data-name="r" class="cls-2" d="M304.22,151.51a2.18,2.18,0,0,0-3.37,0c-1.22,1.22-5.35,8.71-5.35,8.71s7.49-4.13,8.71-5.35A2.17,2.17,0,0,0,304.22,151.51Z" transform="translate(-141.23 -21.12)"/><path id="r-12" data-name="r" class="cls-2" d="M304.22,104.85a2.18,2.18,0,0,0,0-3.37c-1.22-1.22-8.71-5.35-8.71-5.35s4.13,7.49,5.35,8.71A2.17,2.17,0,0,0,304.22,104.85Z" transform="translate(-141.23 -21.12)"/></g><g id="r16"><g id="r4-4" data-name="r4"><path id="r-13" data-name="r" class="cls-2" d="M358,115.56a2.18,2.18,0,0,0,3.12,1.28c1.59-.66,8.28-6,8.28-6s-8.5,1-10.1,1.61A2.17,2.17,0,0,0,358,115.56Z" transform="translate(-141.23 -21.12)"/><path id="r-14" data-name="r" class="cls-2" d="M340.17,158.66a2.18,2.18,0,0,0-1.28,3.12c.66,1.59,6,8.28,6,8.28s-1-8.5-1.61-10.1A2.17,2.17,0,0,0,340.17,158.66Z" transform="translate(-141.23 -21.12)"/><path id="r-15" data-name="r" class="cls-2" d="M297.07,140.81a2.18,2.18,0,0,0-3.12-1.28c-1.59.66-8.28,6-8.28,6s8.5-1,10.1-1.61A2.17,2.17,0,0,0,297.07,140.81Z" transform="translate(-141.23 -21.12)"/><path id="r-16" data-name="r" class="cls-2" d="M314.92,97.7a2.18,2.18,0,0,0,1.28-3.12c-.66-1.59-6-8.28-6-8.28s1,8.5,1.61,10.1A2.17,2.17,0,0,0,314.92,97.7Z" transform="translate(-141.23 -21.12)"/></g></g><path id="r-17" data-name="r" class="cls-2" d="M334,95.83a2.18,2.18,0,0,0,2.79-1.89c.34-1.69-.39-10.22-.39-10.22s-3.93,7.6-4.27,9.29A2.17,2.17,0,0,0,334,95.83Z" transform="translate(-141.23 -21.12)"/><path id="r-18" data-name="r" class="cls-2" d="M359.9,134.62a2.18,2.18,0,0,0,1.89,2.79c1.69.34,10.22-.39,10.22-.39s-7.6-3.93-9.29-4.27A2.17,2.17,0,0,0,359.9,134.62Z" transform="translate(-141.23 -21.12)"/><path id="r-19" data-name="r" class="cls-2" d="M321.11,160.54a2.18,2.18,0,0,0-2.79,1.89c-.34,1.69.39,10.22.39,10.22s3.93-7.6,4.27-9.29A2.17,2.17,0,0,0,321.11,160.54Z" transform="translate(-141.23 -21.12)"/><path id="r-20" data-name="r" class="cls-2" d="M295.19,121.74a2.18,2.18,0,0,0-1.89-2.79c-1.69-.34-10.22.39-10.22.39s7.6,3.93,9.29,4.27A2.17,2.17,0,0,0,295.19,121.74Z" transform="translate(-141.23 -21.12)"/><g id="r4-5" data-name="r4"><path id="r-21" data-name="r" class="cls-2" d="M345.87,100.75a2.18,2.18,0,0,0,3.3-.67c1-1.44,3.55-9.59,3.55-9.59s-6.54,5.52-7.5,7A2.17,2.17,0,0,0,345.87,100.75Z" transform="translate(-141.23 -21.12)"/><path id="r-22" data-name="r" class="cls-2" d="M355,146.51a2.18,2.18,0,0,0,.67,3.3c1.44,1,9.59,3.55,9.59,3.55s-5.52-6.54-7-7.5A2.17,2.17,0,0,0,355,146.51Z" transform="translate(-141.23 -21.12)"/><path id="r-23" data-name="r" class="cls-2" d="M309.22,155.61a2.18,2.18,0,0,0-3.3.67c-1,1.44-3.55,9.59-3.55,9.59s6.54-5.52,7.5-7A2.17,2.17,0,0,0,309.22,155.61Z" transform="translate(-141.23 -21.12)"/><path id="r-24" data-name="r" class="cls-2" d="M300.12,109.85a2.18,2.18,0,0,0-.67-3.3c-1.44-1-9.59-3.55-9.59-3.55s5.52,6.54,7,7.5A2.17,2.17,0,0,0,300.12,109.85Z" transform="translate(-141.23 -21.12)"/></g><g id="sun"><g id="r4-6" data-name="r4"><path id="r-25" data-name="r" class="cls-2" d="M355,109.85a2.18,2.18,0,0,0,3.31.64c1.44-1,7-7.5,7-7.5s-8.15,2.59-9.59,3.55A2.17,2.17,0,0,0,355,109.85Z" transform="translate(-141.23 -21.12)"/><path id="r-26" data-name="r" class="cls-2" d="M345.87,155.61a2.18,2.18,0,0,0-.64,3.31c1,1.44,7.5,7,7.5,7s-2.59-8.15-3.55-9.59A2.17,2.17,0,0,0,345.87,155.61Z" transform="translate(-141.23 -21.12)"/><path id="r-27" data-name="r" class="cls-2" d="M300.12,146.51a2.18,2.18,0,0,0-3.31-.64c-1.44,1-7,7.5-7,7.5s8.15-2.59,9.59-3.55A2.17,2.17,0,0,0,300.12,146.51Z" transform="translate(-141.23 -21.12)"/><path id="r-28" data-name="r" class="cls-2" d="M309.22,100.75a2.18,2.18,0,0,0,.64-3.31c-1-1.44-7.5-7-7.5-7s2.59,8.15,3.55,9.59A2.17,2.17,0,0,0,309.22,100.75Z" transform="translate(-141.23 -21.12)"/></g><g id="r16-2" data-name="r16"><g id="r4-7" data-name="r4"><path id="r-29" data-name="r" class="cls-2" d="M359.9,121.74a2.18,2.18,0,0,0,2.81,1.86c1.69-.34,9.29-4.27,9.29-4.27s-8.53-.72-10.22-.39A2.17,2.17,0,0,0,359.9,121.74Z" transform="translate(-141.23 -21.12)"/><path id="r-30" data-name="r" class="cls-2" d="M334,160.54a2.18,2.18,0,0,0-1.86,2.81c.34,1.69,4.27,9.29,4.27,9.29s.72-8.53.39-10.22A2.17,2.17,0,0,0,334,160.54Z" transform="translate(-141.23 -21.12)"/><path id="r-31" data-name="r" class="cls-2" d="M295.19,134.62a2.18,2.18,0,0,0-2.81-1.86c-1.69.34-9.29,4.27-9.29,4.27s8.53.72,10.22.39A2.17,2.17,0,0,0,295.19,134.62Z" transform="translate(-141.23 -21.12)"/><path id="r-32" data-name="r" class="cls-2" d="M321.11,95.83A2.18,2.18,0,0,0,323,93c-.34-1.69-4.27-9.29-4.27-9.29s-.72,8.53-.39,10.22A2.17,2.17,0,0,0,321.11,95.83Z" transform="translate(-141.23 -21.12)"/></g></g></g><g id="bird"><path class="cls-2" d="M322.37,191.07a9,9,0,0,0-2.27.38c-1,.14-2,.49-3,.65l-.4.06-.68.06a2.5,2.5,0,0,1,.07.56,1.81,1.81,0,0,1-.07.54,1.31,1.31,0,0,1-.29.45,1.59,1.59,0,0,1-.47.38,1.5,1.5,0,0,1-.56.14,1.46,1.46,0,0,1-.58-.07,1.63,1.63,0,0,1-.54-.33,4.64,4.64,0,0,1-.6.11,2.5,2.5,0,0,1-.57,0,6,6,0,0,1-.6-.2,3.48,3.48,0,0,1-.56-.29,5.13,5.13,0,0,0-2,1.6,2.41,2.41,0,0,0-.36,1.15,3.14,3.14,0,0,0,.31,1.5c.08.14.14-.5.39-.58a3.82,3.82,0,0,1,1.44-.72c.44-.22.38,0,.2.36,0,.18-.29.86,0,.52a14,14,0,0,1,4.65-.9c2.29-.24,4.58-.29,6.88-.32s4.32.06,6.47.14a15.77,15.77,0,0,0,3.08.09c.24-.06.63-.08.77-.22a3.89,3.89,0,0,0-1.51-.34h-4.11a12.44,12.44,0,0,1-3.42-.56c-.29-.12-.55-.39-.83-.09a4.69,4.69,0,0,1-3.49-.11c.5-.7,1.11-1.31,1.66-2-.45-.07-.88-.17-1.32-.27.78-.54,1.51-1.15,2.27-1.73Z" transform="translate(-141.23 -21.12)"/><path class="cls-2" d="M356,198.52c-1.56.94-2.76-.73-4.06-1.22-.93.51-1,2.2-1.89,3-1,1.19-2.32-.33-2.23-1.5-1.25,1.05-1.88,3.44-3.9,3.12-1-.78-1.67-2.42-2.4-.55-.6.91-2.18,2.21-3,.83-.25-1.21-.86-2.64-1.52-.71a2.57,2.57,0,0,1-3.32,1.77c-.77-.63.62-3-.36-2.8-1.47,1-2.32,3.38-4.37,3.19-.79-.89.48-2.4-.39-3.39-1,1.32-2.17,3.26-4,3.39-.86-.7,0-2.7-.52-3-1.83,1.1-3.75,3-6.05,2.44.9-3.42,4.64-4.63,7.78-4.89,5.41-.67,11.11.56,16.32-1.4.84-.51,2.88-1.24,2.15-2.43-.64-.94,1.67-.57,1.9-1.67-.14-1.39,1.06-1.2,2.24-1.32,5.26-.23,10.45.88,15.7,1.07.4,2.55-2.44,4.35-4.72,3.56-1.09.18-2.72-2.51-2.4-.55-.22,1-.07,2.38-1,3.06m-44.75-5.23c1.22,1.11,2.07-.21,3.21-.69,3.82-1.31,7.15-3.61,10.43-5.9,2-1.65,3.71-3.78,6.39-4.32,5.21-1.58,10.75-1.38,16-2.84,4-5.45,10.75-7.4,16.42-10.54a3.53,3.53,0,0,0,2.17-2.6,26.18,26.18,0,0,1,8.6-8.51,8,8,0,0,1,5.48-1,9.15,9.15,0,0,1-2.95,5.73c1.26,0,2.34-.82,3.62-.78.44,2.28-2,3.48-3.34,4.9.73.17,3.53.38,2,1.11-1.94,1.35-4.16,2.27-6,3.84,1.65.3,1.84.65.16,1.25-.91.62-2.66.83-2.83,2,1.25.77-.58,1.53-1.28,1.78-1.35.31-2.76.9-1,1.92a3.56,3.56,0,0,1-3.31,1.14c.36,1.16.88,2.45-.62,3a23.25,23.25,0,0,1-11.56,4.83,24.84,24.84,0,0,0,15.27-3.45c.6-.71,3.73-1.46,2-2.06-.82-.34-2.59-.72-2.71-1.35,2.45-1.51,5.54-1,8.17-1.87.07-.85-2-.62-2.78-.81-1.84-.15-1.74-.62,0-.8,2.25-.6,4.8-.71,6.69-2.18-1.54-.71-3.48-.09-5.12-.67,2.79-1.22,6.07-1.34,8.57-3.17,1.14-1.27-1.46-.87-2.22-.84-1.54.27-2.26-.47-.5-1.11,3-2.21,6.78-3.64,8.88-6.84.5-.72,1.17-2.87-.42-2.1-2.09.69-3.93,3-6.31,2.32a52.18,52.18,0,0,0,12.36-12.8c.17-1.45-2.11-1.61-2.7-.47-3,2.9-5.74,6.33-9.6,8.15a60.43,60.43,0,0,0,9.41-12.16c.57-1.3,2.11-2.87,1.27-4.31-1.34-1.11-3-.09-3.72,1.24-2.34,3.06-4.12,6.63-7.13,9.12,2.64-5,5.37-10.39,5.43-16.19,0-1.19-.25-3-1.87-2.73-1.29.23-1,2.16-1.51,3.13-1.17,4-1.72,8.26-4.11,11.73.54-3.22,1.48-6.58.76-9.83-.34-1.45-2.69-.83-2.38.61-2.81,14.21-12.34,26.64-24.81,33.83a53.48,53.48,0,0,1-18.58,6.26c-1.75.38-3.63.16-5.3.75-4,3.1-6.49,8.29-11.61,9.91-2.29,1.14-5.29,1.37-6.93,3.5a1.85,1.85,0,0,0-.17.89" transform="translate(-141.23 -21.12)"/><path class="cls-2" d="M326.54,178.87a28.68,28.68,0,0,1-2.17,4.17c-2.92-2.66-7.16-2.57-10.86-2.75-3.06-.16-6.39-.45-8.75-2.63s-4.52-4.69-7.3-6.34a18,18,0,0,1-7.14-3.29c-4.36-3.56-6.86-8.83-11.12-12.5a24.84,24.84,0,0,0-2.68-2.1c-.87.21-.47,2.08-1.53,1.13-.58-.41-2-.45-2.15.12,1.3,1.72,2.61,3.68,2.79,5.88-.89.09-2.47-.19-2.91.14a18.18,18.18,0,0,0,4.41,4.59c-.82.13-2.45.06-2.77.39,1.71,1.39,3.54,2.81,5.77,3.17.46.6-.67,1.77.28,2.28.55.22,2.36.6,1.11,1.22a1,1,0,0,0,.56,1.89c.69.35,2.25.44,2.37,1.05-.61.62-2.52,1.37-.9,2a11.23,11.23,0,0,0,5,1.45c-.87.73-1.94,1.15-2.84,1.84a68.65,68.65,0,0,0,12.82,5.38,40.8,40.8,0,0,0,5.32,1.47,43.61,43.61,0,0,1-15.13-4c-2.48-1.09-5-2.14-7.52-3.08,1.12-.58,2.41-.72,3.56-1.22-2.4-.48-5-.64-7.13-2,.32-.58,1.55-.6,2.23-.9,1.28-.31,2.07-.68.27-.79-1.81-.49-3.89-.27-5.49-1.37.1-.66,1.78-.43,2.46-.71a5.1,5.1,0,0,0,2.5-.85c-2.8-1.16-6.47-.34-8.67-2.81-.51-.94,1.57-.18,2.16-.34,1.5,0,3.12.48,4.55-.13-4.09-1.79-8.46-3.47-11.58-6.79-.35-.53-1.38-2-.55-2.17,2.42.32,4.18,3,6.77,2.56.34-.46-1.51-1.23-2-1.89a49.5,49.5,0,0,1-10.1-11c-.18-1.42,2-1.63,2.64-.54,2.89,2.79,5.5,6,9.11,7.94,1.28.62-.73-.73-1-1.22a64.45,64.45,0,0,1-8.82-12.5c-.42-.82-1.11-2.31.14-2.74a2.44,2.44,0,0,1,3.11,1.3c2.45,3.09,4.25,6.75,7.3,9.33-2.6-5-5.37-10.35-5.44-16.14.06-1.12.13-2.82,1.66-2.78,1.28-.19,1.08,1.44,1.5,2.23,1.26,4.26,1.81,8.87,4.34,12.63-.56-3.16-1.38-6.42-.83-9.63a1.24,1.24,0,0,1,2.09-.74c.63,1.53.76,3.43,1.33,5.07a51.22,51.22,0,0,0,20.05,27.45A52.81,52.81,0,0,0,324,178.72c.86.07,1.72.1,2.57.15" transform="translate(-141.23 -21.12)"/><circle class="cls-2" cx="173.27" cy="171.97" r="0.51"/><circle class="cls-3" cx="173.23" cy="171.89" r="0.21"/></g><rect class="cls-4" x="0.61" y="0.64" width="358.32" height="119.44"/><rect class="cls-5" x="0.61" y="120.08" width="358.32" height="119.44"/><rect class="cls-6" x="0.61" y="80.26" width="358.32" height="79.63"/></g><g id="Layer_3" data-name="Layer 3"><g id="ZE0eVE.tif"><path class="cls-7" d="M303,21.14H338.9c0,30.85,0,61.7-.07,92.55,0,2.84.69,3.47,3.48,3.46,51.7-.09,103.4,0,155.1-.13,2.63,0,3.16.75,3.14,3.23q-.18,20.89,0,41.79c0,2.63-.51,3.38-3.29,3.37-51.79-.1-103.59-.05-155.38-.13-2.44,0-3.06.54-3.05,3,.1,30,0,60,.13,90,0,2.55-.7,3-3.09,3q-15-.21-30,0c-2.28,0-2.95-.46-2.94-2.86.09-30,0-60,.12-90,0-2.57-.66-3.18-3.19-3.17q-79.23.12-158.46.06V117.09q79.37,0,158.74.06c2.32,0,2.91-.54,2.91-2.89Q302.91,67.7,303,21.14Z" transform="translate(-141.23 -21.12)"/><path class="cls-8" d="M141.39,165.34q79.23,0,158.46-.06c2.53,0,3.2.6,3.19,3.17-.1,30,0,60-.12,90,0,2.39.66,2.89,2.94,2.86q15-.2,30,0c2.39,0,3.09-.45,3.09-3-.11-30,0-60-.13-90,0-2.49.61-3,3.05-3,51.79.08,103.59,0,155.38.13,2.78,0,3.32-.74,3.29-3.37q-.21-20.89,0-41.79c0-2.47-.51-3.23-3.14-3.23-51.7.09-103.4,0-155.1.13-2.8,0-3.5-.62-3.48-3.46.12-30.85.07-61.7.07-92.55h11.78c.06,1,.17,2,.18,3.06q0,33.38,0,66.75c0,1-.28,2,.3,3.06,4.51-3,9-5.82,13.39-8.78,3.55-2.37,7.08-4.76,10.68-7.05,5.11-3.25,10-6.86,15-10.24,4.74-3.19,9.56-6.26,14.32-9.44,5.19-3.47,10.32-7,15.51-10.51,4.91-3.28,9.89-6.45,14.8-9.72,5.2-3.46,10.42-6.89,15.49-10.53,3.05-2.19,6.64-3.66,9.15-6.61H473c-2.53,3-6.12,4.47-9.21,6.64-4.93,3.45-10.06,6.62-15.07,10s-10.27,6.91-15.41,10.38c-3.92,2.65-7.84,5.32-11.76,8q-7,4.73-14.07,9.44c-4.94,3.28-9.93,6.49-14.85,9.8-6.12,4.11-12.18,8.32-18.31,12.41-5,3.34-10.24,6.39-15.07,10-1.3,1-3.71,1.06-3.94,3.51,7.94,0,15.79,0,23.64,0a5.49,5.49,0,0,0,3.49-1.24c3.58-2.67,7.42-5,11.16-7.43,5-3.29,10.12-6.53,15.14-9.86,5.23-3.47,10.39-7,15.61-10.53,4.93-3.29,10.06-6.32,14.8-9.86,5.61-4.2,11.61-7.82,17.35-11.82,4.94-3.44,10.09-6.57,15.11-9.9,5.23-3.47,10.48-6.91,15.59-10.55,4.21-3,8.88-5.35,12.74-8.86.93,0,2.17-.35,1.7,1.41a4.42,4.42,0,0,0,0,1.12q0,117.83.05,235.66c0,2.1-.47,2.58-2.58,2.58q-177.58-.09-355.17-.09c-.82,0-1.9.65-2.52-.53,8.19,0,16.39,0,24.58,0a4.59,4.59,0,0,0,3-.83c4.66-3.34,9.52-6.42,14.32-9.55,5.12-3.34,10.37-6.49,15.36-10,5.21-3.67,10.54-7.13,15.85-10.64,4.87-3.21,9.91-6.19,14.54-9.71s9.3-6.33,13.92-9.55c4.93-3.44,10.1-6.54,15.11-9.87,7.57-5,15.15-10.06,22.62-15.25,2-1.39,4.44-2.32,6.08-4.65-8.16,0-16,0-23.86,0a6.89,6.89,0,0,0-4.48,1.76c-2.55,2-5.49,3.6-8.24,5.4-5,3.24-9.92,6.48-14.85,9.77-5.14,3.43-10.23,6.94-15.36,10.38-3.87,2.59-7.8,5.07-11.65,7.68-4.66,3.16-9.22,6.45-13.89,9.58-5,3.35-10.1,6.54-15.12,9.87-5.22,3.47-10.4,7-15.59,10.53-5,3.42-9.94,7.06-15.15,10.19-2.29,1.38-4.09,3.92-7.21,3.77q0-12.9,0-25.81a18.28,18.28,0,0,1,1.93-1.4c4.16-2.28,7.86-5.24,11.88-7.74,5.89-3.68,11.41-7.94,17.19-11.81,6.18-4.15,12.49-8.1,18.7-12.21,7.7-5.1,15.4-10.21,23-15.49,1.91-1.33,4.33-2.15,5.73-4.46H144.73c-1.11,0-2.23-.11-3.34-.18Zm40.2,95.74c1.29.12,1.73.2,2.17.2q52.57,0,105.14.06c2.15,0,2.13-1,2.13-2.53q0-22.85,0-45.7c0-7.57,0-15.14,0-22.71,0-.61.36-1.48-.29-1.79s-1.28.31-1.88.76c-1.59,1.19-3.24,2.3-4.91,3.39-5,3.27-10.07,6.46-15,9.79-6.15,4.12-12.12,8.5-18.37,12.46-4.82,3.06-9.3,6.59-14.22,9.52-5.34,3.18-10.33,6.94-15.5,10.41-3.84,2.57-7.73,5.05-11.57,7.62-5.1,3.41-10.17,6.88-15.27,10.3C190.08,255.47,186.17,258,181.6,261.08Zm277.86.2.17-.6c-2.44-1.69-4.85-3.42-7.32-5.07q-13.45-9-26.92-18c-9.13-6.08-18.29-12.12-27.41-18.22-4.75-3.18-9.47-6.41-14.31-9.46-5.28-3.32-10.32-7-15.53-10.47-4.92-3.26-9.68-6.76-14.77-9.77-.73-.43-1.32-1.58-2.2-1.13s-.3,1.53-.3,2.33c0,22.44,0,44.87-.07,67.31,0,2.41.49,3.1,3,3.09q51.46-.15,102.93-.07ZM500.49,48l-78.54,52.59.33.62h75.93c1.24,0,2.33.2,2.32-1.76C500.46,82.43,500.49,65.43,500.49,48Zm0,186.27V231c0-15.52-.05-31,.06-46.57,0-2.46-.48-3.27-3.14-3.26-23.47.12-46.94.07-70.41.07h-4.68l-.24.51Zm0,26.83c0-5.9,0-11.13,0-16.36,0-1.53-.94-2.25-2.1-3-2.89-1.76-5.77-3.54-8.58-5.42-5.06-3.39-10-6.9-15.08-10.3-4.68-3.16-9.43-6.21-14.12-9.36-5.05-3.4-10-6.91-15.1-10.28s-10.13-6.51-15.13-9.86c-6.2-4.14-12.27-8.47-18.52-12.53-1.71-1.11-3.15-2.84-5.56-2.82-8.1.08-16.19,0-25.19,0Z" transform="translate(-141.23 -21.12)"/><path class="cls-8" d="M303,21.14q0,46.56.06,93.12c0,2.35-.59,2.89-2.91,2.89q-79.37-.11-158.74-.06V101.38c1.11-.06,2.23-.17,3.34-.18h74.74c.44-1.46-.54-1.59-1.16-1.86a39,39,0,0,1-5.09-3.23c-5.13-3.22-10-6.85-15-10.21s-10.34-6.46-15.3-10c-5.18-3.67-10.52-7.07-15.78-10.61-4.65-3.13-9.17-6.45-13.82-9.58-3.91-2.63-7.91-5.11-11.88-7.66v-9a11.32,11.32,0,0,1,1.77.81c3.9,2.66,7.75,5.41,11.68,8,5,3.34,10.15,6.5,15.15,9.87,5.72,3.86,11.3,7.95,17,11.79,7.28,4.88,14.68,9.57,22,14.43s14.41,9.89,21.73,14.65c1.68,1.09,3.15,2.65,5.63,2.59,7.85-.19,15.7-.07,23.6-.07-.22-2.14-2.25-2.06-3.44-2.89-5.07-3.54-10.2-7-15.35-10.42-4.93-3.29-9.94-6.48-14.87-9.77s-10.05-6.88-15.11-10.29c-4.69-3.16-9.42-6.23-14.12-9.38-5.14-3.44-10.22-7-15.37-10.39-4.93-3.29-9.93-6.48-14.87-9.77-5.22-3.48-10.47-6.93-15.58-10.56-3.1-2.2-6.6-3.83-9.3-6.6h40.4c1.26,2.15,3.66,2.85,5.54,4.17,5,3.5,10.2,6.6,15.25,10,7.2,4.82,14.31,9.78,21.5,14.61,7,4.69,14.06,9.26,21,14,8.32,5.59,16.56,11.28,24.89,16.86C277.23,85.18,284,89.54,290.71,94c.57-1,.29-2.07.29-3q0-33.37,0-66.74c0-1,.11-2,.17-3.06Z" transform="translate(-141.23 -21.12)"/><path class="cls-9" d="M291.2,21.14c-.06,1-.17,2-.17,3.06q0,33.37,0,66.74c0,1,.28,2-.29,3-6.76-4.45-13.49-8.81-20.14-13.27-8.32-5.58-16.57-11.28-24.89-16.86-7-4.69-14.06-9.26-21-14-7.19-4.83-14.3-9.79-21.5-14.61-5-3.38-10.29-6.48-15.25-10-1.87-1.32-4.28-2-5.54-4.17Z" transform="translate(-141.23 -21.12)"/><path class="cls-9" d="M459.53,21.14c-2.51,2.95-6.09,4.42-9.15,6.61-5.07,3.64-10.3,7.07-15.49,10.53C430,41.56,425,44.73,420.09,48c-5.19,3.47-10.32,7-15.51,10.51-4.75,3.18-9.57,6.25-14.32,9.44-5,3.38-9.91,7-15,10.24-3.6,2.29-7.13,4.68-10.68,7.05-4.41,3-8.88,5.83-13.39,8.78-.58-1.05-.3-2.09-.3-3.06q0-33.38,0-66.75c0-1-.11-2-.18-3.06Z" transform="translate(-141.23 -21.12)"/><path class="cls-7" d="M141.39,260.16c3.12.15,4.91-2.39,7.21-3.77,5.21-3.13,10.11-6.77,15.15-10.19,5.19-3.52,10.37-7.06,15.59-10.53,5-3.33,10.12-6.52,15.12-9.87,4.67-3.13,9.23-6.43,13.89-9.58,3.85-2.61,7.79-5.09,11.65-7.68,5.14-3.44,10.22-6.94,15.36-10.38,4.93-3.29,9.89-6.53,14.85-9.77,2.75-1.8,5.69-3.36,8.24-5.4a6.89,6.89,0,0,1,4.48-1.76c7.85,0,15.7,0,23.86,0-1.64,2.33-4.07,3.26-6.08,4.65-7.47,5.19-15,10.22-22.62,15.25-5,3.33-10.18,6.43-15.11,9.87-4.61,3.22-9.42,6.14-13.92,9.55s-9.67,6.5-14.54,9.71c-5.31,3.5-10.64,7-15.85,10.64-5,3.52-10.24,6.66-15.36,10-4.81,3.14-9.66,6.21-14.32,9.55a4.59,4.59,0,0,1-3,.83c-8.19,0-16.39,0-24.58,0Z" transform="translate(-141.23 -21.12)"/><path class="cls-7" d="M499.93,21.14C496.07,24.65,491.4,27,487.19,30c-5.11,3.64-10.36,7.08-15.59,10.55-5,3.33-10.17,6.46-15.11,9.9-5.74,4-11.73,7.62-17.35,11.82-4.74,3.55-9.87,6.57-14.8,9.86-5.22,3.49-10.38,7.06-15.61,10.53-5,3.33-10.09,6.57-15.14,9.86-3.75,2.44-7.58,4.76-11.16,7.43a5.49,5.49,0,0,1-3.49,1.24c-7.85,0-15.7,0-23.64,0,.22-2.44,2.64-2.54,3.94-3.51,4.83-3.58,10.06-6.63,15.07-10,6.14-4.09,12.19-8.3,18.31-12.41,4.93-3.3,9.91-6.52,14.85-9.8q7.06-4.69,14.07-9.44c3.93-2.65,7.84-5.31,11.76-8,5.13-3.46,10.25-6.95,15.41-10.38s10.14-6.51,15.07-10c3.1-2.17,6.68-3.68,9.21-6.64Z" transform="translate(-141.23 -21.12)"/><path class="cls-9" d="M141.39,48.07c4,2.55,8,5,11.88,7.66,4.65,3.13,9.18,6.44,13.82,9.58,5.25,3.54,10.6,6.94,15.78,10.61,5,3.52,10.24,6.6,15.3,10s9.92,7,15,10.21a39,39,0,0,0,5.09,3.23c.62.27,1.6.4,1.16,1.86H144.74c-1.11,0-2.23.11-3.34.18Z" transform="translate(-141.23 -21.12)"/><path class="cls-9" d="M141.39,181.05c1.11.06,2.23.17,3.34.18H219.8c-1.4,2.31-3.82,3.13-5.73,4.46-7.58,5.28-15.28,10.39-23,15.49-6.2,4.11-12.52,8.06-18.7,12.21-5.77,3.88-11.29,8.14-17.19,11.81-4,2.5-7.72,5.47-11.88,7.74a18.28,18.28,0,0,0-1.93,1.4Q141.39,207.7,141.39,181.05Z" transform="translate(-141.23 -21.12)"/><path class="cls-7" d="M142,21.14c2.69,2.77,6.2,4.4,9.3,6.6,5.11,3.63,10.36,7.08,15.58,10.56,4.94,3.29,9.94,6.48,14.87,9.77,5.15,3.43,10.23,6.94,15.37,10.39,4.69,3.15,9.43,6.23,14.12,9.38,5.05,3.4,10,6.9,15.11,10.29s9.93,6.49,14.87,9.77c5.15,3.43,10.28,6.88,15.35,10.42,1.19.83,3.23.75,3.44,2.89-7.9,0-15.76-.12-23.6.07-2.47.06-4-1.5-5.63-2.59C223.4,93.92,216.26,88.88,209,84S194.3,74.48,187,69.6c-5.73-3.85-11.31-7.93-17-11.79-5-3.37-10.13-6.53-15.15-9.87-3.93-2.62-7.78-5.37-11.68-8a11.32,11.32,0,0,0-1.77-.81c0-5.52,0-11,0-16.55C141.44,22.12,140.71,21.19,142,21.14Z" transform="translate(-141.23 -21.12)"/><path class="cls-9" d="M181.6,261.08c4.57-3,8.48-5.61,12.37-8.23,5.1-3.42,10.16-6.89,15.27-10.3,3.84-2.57,7.74-5,11.57-7.62,5.17-3.47,10.16-7.23,15.5-10.41,4.92-2.93,9.39-6.47,14.22-9.52,6.25-4,12.22-8.34,18.37-12.46,5-3.33,10-6.51,15-9.79,1.66-1.09,3.32-2.2,4.91-3.39.6-.45,1.2-1.08,1.88-.76s.29,1.18.29,1.79c0,7.57,0,15.14,0,22.71q0,22.85,0,45.7c0,1.55,0,2.54-2.13,2.53q-52.57-.11-105.14-.06C183.33,261.28,182.89,261.2,181.6,261.08Z" transform="translate(-141.23 -21.12)"/><path class="cls-9" d="M459.46,261.29h-2.7q-51.46,0-102.93.07c-2.54,0-3-.68-3-3.09.1-22.44.05-44.87.07-67.31,0-.8-.43-2,.3-2.33s1.46.7,2.2,1.13c5.09,3,9.85,6.51,14.77,9.77,5.21,3.44,10.25,7.15,15.53,10.47,4.84,3,9.56,6.28,14.31,9.46,9.12,6.1,18.27,12.14,27.41,18.22q13.47,9,26.92,18c2.46,1.65,4.88,3.38,7.32,5.07Z" transform="translate(-141.23 -21.12)"/><path class="cls-9" d="M500.49,48c0,17.44,0,34.44,0,51.45,0,2-1.07,1.76-2.32,1.76H422.28l-.33-.62Z" transform="translate(-141.23 -21.12)"/><path class="cls-9" d="M500.49,234.26l-78.42-52.52.24-.51H427c23.47,0,46.94,0,70.41-.07,2.67,0,3.16.8,3.14,3.26-.11,15.52-.06,31-.06,46.57Z" transform="translate(-141.23 -21.12)"/><path class="cls-7" d="M500.48,261.09,381.12,181.23c9,0,17.09,0,25.19,0,2.41,0,3.85,1.7,5.56,2.82,6.25,4.06,12.33,8.39,18.52,12.53,5,3.34,10.12,6.52,15.13,9.86s10,6.88,15.1,10.28c4.68,3.15,9.43,6.21,14.12,9.36,5,3.4,10,6.91,15.08,10.3,2.81,1.88,5.69,3.66,8.58,5.42,1.16.71,2.1,1.43,2.1,3C500.47,250,500.48,255.19,500.48,261.09Z" transform="translate(-141.23 -21.12)"/></g></g></svg>