<svg xmlns="http://www.w3.org/2000/svg" viewBox="0 0 25 25"><defs><style>.a{fill:#2a2a2a;}</style></defs><title>Artboard 3</title><path class="a" d="M12.5,4.3c2.67,0,3,0,4,.06a5.61,5.61,0,0,1,1.86.34,3.31,3.31,0,0,1,1.89,1.9,5.54,5.54,0,0,1,.35,1.86c.05,1,.06,1.37.06,4s0,3-.06,4a5.52,5.52,0,0,1-.35,1.85,3.28,3.28,0,0,1-1.89,1.9,5.35,5.35,0,0,1-1.86.34c-1,.05-1.37.06-4,.06s-3,0-4-.06a5.41,5.41,0,0,1-1.86-.34,3.28,3.28,0,0,1-1.89-1.9,5.52,5.52,0,0,1-.35-1.85c-.05-1.06-.06-1.37-.06-4s0-3,.06-4A5.54,5.54,0,0,1,4.71,6.6,3.31,3.31,0,0,1,6.6,4.7a5.67,5.67,0,0,1,1.86-.34c1-.05,1.37-.06,4-.06m0-1.8c-2.72,0-3.05,0-4.12.06A7.59,7.59,0,0,0,6,3,5.14,5.14,0,0,0,3,6a7.3,7.3,0,0,0-.47,2.43c-.05,1.06-.06,1.4-.06,4.12s0,3.05.06,4.12A7.59,7.59,0,0,0,3,19.05,5.14,5.14,0,0,0,6,22a7.3,7.3,0,0,0,2.43.47c1.06,0,1.4.06,4.12.06s3.06,0,4.12-.06A7.59,7.59,0,0,0,19.05,22,5.15,5.15,0,0,0,22,19.05a7.53,7.53,0,0,0,.46-2.43c0-1.06.06-1.4.06-4.12s0-3.05-.06-4.12A7.59,7.59,0,0,0,22,6,5.14,5.14,0,0,0,19.05,3a7.3,7.3,0,0,0-2.43-.47c-1.06,0-1.4-.06-4.12-.06"/><path class="a" d="M12.5,7.36a5.14,5.14,0,1,0,5.14,5.14h0A5.14,5.14,0,0,0,12.5,7.36m0,8.47a3.33,3.33,0,1,1,3.33-3.33,3.33,3.33,0,0,1-3.33,3.33h0"/><path class="a" d="M19,7.16A1.2,1.2,0,1,1,17.84,6,1.2,1.2,0,0,1,19,7.16h0"/></svg>