<?xml version="1.0" encoding="utf-8"?>
<!-- Generator: Adobe Illustrator 22.1.0, SVG Export Plug-In . SVG Version: 6.00 Build 0)  -->
<svg version="1.1" id="Layer_1" xmlns="http://www.w3.org/2000/svg" xmlns:xlink="http://www.w3.org/1999/xlink" x="0px" y="0px"
	 viewBox="0 0 1024 490" style="enable-background:new 0 0 1024 490;" xml:space="preserve">
<style type="text/css">
	.st0{fill:#FFCF08;}
	.st1{fill:#2A2A2A;}
	.st2{fill:#00B5E2;}
	.st3{fill:#FFFFFF;}
</style>
<title>logo</title>
<path class="st0" d="M548.8,57.2H91.3C75.7,57.2,63,69.6,63,85c0,0,0.2,112.9,0.6,114.7l0.1,65l45.2-42.7h440
	c15.6,0,28.3-12.4,28.3-27.8V85C577.1,69.6,564.5,57.2,548.8,57.2"/>
<polygon class="st1" points="133.6,102.1 153.3,102.1 153.3,128.4 178.7,128.4 178.7,102.1 198.5,102.1 198.5,172.2 178.7,172.2 
	178.7,145.6 153.3,145.6 153.3,172.2 133.6,172.2 "/>
<polygon class="st1" points="222.3,102.1 279.7,102.1 279.7,118.6 241.9,118.6 241.9,129.2 276.1,129.2 276.1,144.6 241.9,144.6 
	241.9,155.7 280.2,155.7 280.2,172.2 222.3,172.2 "/>
<polygon class="st1" points="302,102.1 321.8,102.1 321.8,155.2 356.4,155.2 356.4,172.2 302,172.2 "/>
<polygon class="st1" points="373.6,102.1 393.4,102.1 393.4,155.2 428,155.2 428,172.2 373.6,172.2 "/>
<path class="st1" d="M442.1,137.4v-0.2c0-20.1,16.5-36.4,38.5-36.4S519,116.8,519,137v0.2c0,20.1-16.5,36.4-38.5,36.4
	S442.1,157.5,442.1,137.4 M498.8,137.4v-0.2c0-10.1-7.4-18.9-18.4-18.9s-18,8.6-18,18.7v0.2c0,10.1,7.4,18.9,18.2,18.9
	S498.9,147.5,498.8,137.4"/>
<path class="st2" d="M960.4,290.4l-0.1-65l-45.2,42.7H154.4c-15.6,0-28.3,12.5-28.3,27.8V405c0,15.4,12.7,27.8,28.3,27.8h778.2
	c15.7,0,28.3-12.5,28.3-27.8C961,405,960.8,292.1,960.4,290.4"/>
<polygon class="st3" points="199.5,315.5 219.3,315.5 219.3,368.5 253.9,368.5 253.9,385.6 199.5,385.6 "/>
<path class="st3" d="M298.2,315h19.1l30.4,70.6h-21.2l-5.2-12.5h-27.5l-5.1,12.5h-20.8L298.2,315z M315.5,357.9l-8-19.9l-8.1,19.9
	H315.5z"/>
<polygon class="st3" points="363.5,315.5 384.5,315.5 401.5,342.6 418.5,315.5 439.4,315.5 439.4,385.6 419.8,385.6 419.8,345.3 
	401.5,372.8 401.1,372.8 382.9,345.5 382.9,385.6 363.5,385.6 "/>
<path class="st3" d="M462.6,315.5h30.6c18,0,29.7,9.1,29.7,24.6v0.2c0,16.5-13,25.2-30.7,25.2h-9.8v20h-19.8V315.5z M491.8,350.3
	c7,0,11.3-3.6,11.3-9.1V341c0-6-4.3-9.2-11.4-9.2h-9.3v18.5L491.8,350.3z"/>
<path class="st3" d="M579.9,315.5h30.6c18,0,29.7,9.1,29.7,24.6v0.2c0,16.5-13,25.2-30.7,25.2h-9.8v20h-19.8V315.5z M609,350.3
	c7,0,11.3-3.6,11.3-9.1V341c0-6-4.3-9.2-11.4-9.2h-9.3v18.5L609,350.3z"/>
<path class="st3" d="M655.3,350.7v-0.2c0-20.1,16.5-36.4,38.5-36.4s38.3,16.1,38.3,36.2v0.2c0,20.1-16.5,36.4-38.5,36.4
	S655.3,370.9,655.3,350.7 M712,350.7v-0.2c0-10.1-7.4-18.9-18.4-18.9s-18,8.6-18,18.7v0.2c0,10.1,7.4,18.9,18.3,18.9
	S712,360.8,712,350.7"/>
<path class="st3" d="M745.4,375.2l11-12.9c7,5.5,14.9,8.4,23.2,8.4c5.3,0,8.2-1.8,8.2-4.8v-0.2c0-2.9-2.3-4.5-12-6.7
	c-15.2-3.4-26.9-7.6-26.9-22v-0.2c0-13,10.5-22.4,27.6-22.4c12.1,0,21.6,3.2,29.4,9.3l-9.9,13.7c-6.5-4.5-13.7-6.9-20-6.9
	c-4.8,0-7.1,2-7.1,4.5v0.2c0,3.2,2.5,4.6,12.3,6.8c16.4,3.5,26.6,8.7,26.6,21.8v0.2c0,14.3-11.5,22.8-28.9,22.8
	C766.2,386.8,754.2,382.9,745.4,375.2"/>
<polygon class="st3" points="843.3,332.5 821.8,332.5 821.8,315.5 884.5,315.5 884.5,332.5 863.1,332.5 863.1,385.6 843.3,385.6 "/>
</svg>
