<svg id="Layer_1" data-name="Layer 1" xmlns="http://www.w3.org/2000/svg" viewBox="0 0 129 129"><defs><style>.cls-1{fill:#404142;}.cls-2{fill:#ffd100;}.cls-3{fill:#fff;}</style></defs><title>logo-en</title><rect class="cls-1" x="2" y="28" width="63" height="23" rx="4" ry="4"/><rect class="cls-2" x="2" y="55" width="107" height="23" rx="4" ry="4"/><path class="cls-3" d="M9.47,34.91H12v3.41h3.24V34.91h2.52V44H15.23V40.55H12V44H9.47Z"/><path class="cls-3" d="M20.66,34.91H28v2.15H23.15v1.38h4.37v2H23.15v1.44H28V44H20.66Z"/><path class="cls-3" d="M30.63,34.91h2.52V41.8h4.41V44H30.63Z"/><path class="cls-3" d="M39.94,34.91h2.52V41.8h4.41V44H39.94Z"/><path class="cls-3" d="M48.15,39.49v0a4.9,4.9,0,0,1,9.8,0v0a4.9,4.9,0,0,1-9.8,0Zm7.23,0v0A2.36,2.36,0,0,0,53,37a2.32,2.32,0,0,0-2.3,2.43v0a2.36,2.36,0,0,0,2.33,2.46A2.32,2.32,0,0,0,55.38,39.49Z"/><path class="cls-1" d="M8.2,69.57,9.49,68a4.32,4.32,0,0,0,2.72,1c.62,0,1-.22,1-.58v0c0-.35-.28-.54-1.42-.8C10,67.22,8.59,66.71,8.59,65v0c0-1.56,1.24-2.69,3.25-2.69a5.28,5.28,0,0,1,3.45,1.12L14.13,65a4.21,4.21,0,0,0-2.35-.83c-.56,0-.84.24-.84.54v0c0,.38.29.55,1.45.82,1.93.42,3.13,1,3.13,2.61v0c0,1.72-1.36,2.74-3.39,2.74A5.87,5.87,0,0,1,8.2,69.57Z"/><path class="cls-1" d="M17.27,67.13V62.42h2.36v4.67c0,1.21.61,1.79,1.55,1.79s1.55-.55,1.55-1.73V62.42h2.36v4.65c0,2.71-1.55,3.9-3.93,3.9S17.27,69.76,17.27,67.13Z"/><path class="cls-1" d="M26.56,69.57,27.85,68a4.32,4.32,0,0,0,2.72,1c.62,0,1-.22,1-.58v0c0-.35-.28-.54-1.42-.8C28.33,67.22,27,66.71,27,65v0c0-1.56,1.24-2.69,3.25-2.69a5.28,5.28,0,0,1,3.45,1.12L32.49,65a4.21,4.21,0,0,0-2.35-.83c-.56,0-.84.24-.84.54v0c0,.38.29.55,1.45.82,1.93.42,3.13,1,3.13,2.61v0c0,1.72-1.36,2.74-3.39,2.74A5.87,5.87,0,0,1,26.56,69.57Z"/><path class="cls-1" d="M37.55,64.46H35v-2h7.36v2H39.87v6.36H37.55Z"/><path class="cls-1" d="M46,62.36H48.2l3.57,8.46H49.28l-.61-1.5H45.43l-.6,1.5H42.38Zm2,5.14-.94-2.39-.95,2.39Z"/><path class="cls-1" d="M53.36,62.42H55.7v8.4H53.36Z"/><path class="cls-1" d="M58,62.42h2.17l3.45,4.44V62.42h2.3v8.4h-2l-3.59-4.61v4.61H58Z"/><path class="cls-1" d="M71,62.36h2.24l3.57,8.46H74.32l-.61-1.5H70.47l-.6,1.5H67.43Zm2,5.14-.94-2.39-.95,2.39Z"/><path class="cls-1" d="M78.36,62.42h4.31a3.1,3.1,0,0,1,2.29.76,1.84,1.84,0,0,1,.54,1.35v0a1.94,1.94,0,0,1-1.3,1.87,2,2,0,0,1,1.67,2.05v0c0,1.44-1.18,2.31-3.18,2.31H78.36Zm3.73,3.35c.71,0,1.1-.24,1.1-.73v0c0-.46-.36-.72-1.06-.72H80.63v1.48Zm.34,3.18c.71,0,1.12-.28,1.12-.77v0c0-.46-.36-.76-1.14-.76H80.63v1.55Z"/><path class="cls-1" d="M87.66,62.42H90v6.36h4.07v2H87.66Z"/><path class="cls-1" d="M95.77,62.42h6.75v2H98.08v1.27h4V67.5h-4v1.33h4.51v2H95.77Z"/><polygon class="cls-1" points="16 29 2 20 2 34 16 34 16 29"/><path class="cls-1" d="M43.84,82.24l61-.47a4,4,0,0,1,4,4l.11,13,0,2,.1,12-12.51-7.9-52.55.4a4,4,0,0,1-4-4l-.12-15A4,4,0,0,1,43.84,82.24Z"/><polygon class="cls-2" points="95 56 109 47 109 61 95 61 95 56"/><path class="cls-3" d="M47.89,88.91h2.67l2.17,3.52,2.17-3.52h2.67V98H55.05V92.79l-2.33,3.56h-.05l-2.31-3.54V98H47.89Z"/><path class="cls-3" d="M63.1,88.85h2.43L69.4,98H66.7L66,96.39H62.53L61.88,98H59.23Zm2.21,5.58-1-2.59-1,2.59Z"/><path class="cls-3" d="M71.07,88.91h2.52V95.8H78V98H71.07Z"/><path class="cls-3" d="M79.86,88.91h2.67l2.17,3.52,2.17-3.52h2.67V98H87V92.79l-2.33,3.56h-.05l-2.31-3.54V98H79.86Z"/><path class="cls-3" d="M91.61,93.49v0a4.9,4.9,0,0,1,9.8,0v0a4.9,4.9,0,0,1-9.8,0Zm2.42-7h2.15V88.3H94Zm4.81,7v0A2.36,2.36,0,0,0,96.5,91a2.32,2.32,0,0,0-2.3,2.43v0a2.36,2.36,0,0,0,2.33,2.46A2.32,2.32,0,0,0,98.84,93.49Zm-2-7H99V88.3H96.87Z"/></svg>