<svg id="Layer_1" data-name="Layer 1" xmlns="http://www.w3.org/2000/svg" viewBox="0 0 1024 490"><defs><style>.cls-1{fill:#ffcf08;}.cls-2{fill:#2a2a2a;}.cls-3{fill:#44bfef;}.cls-4{fill:#fff;}</style></defs><title>logo</title><path class="cls-1" d="M548.79,57.17H91.34C75.69,57.17,63,69.62,63,85c0,0,.2,112.88.57,114.67l.07,65,45.18-42.71h440c15.64,0,28.32-12.45,28.32-27.81V85c0-15.36-12.68-27.8-28.32-27.8"/><polygon class="cls-2" points="133.55 102.12 153.33 102.12 153.33 128.35 178.72 128.35 178.72 102.12 198.5 102.12 198.5 172.19 178.72 172.19 178.72 145.56 153.33 145.56 153.33 172.19 133.55 172.19 133.55 102.12"/><polygon class="cls-2" points="222.27 102.12 279.68 102.12 279.68 118.64 241.85 118.64 241.85 129.25 276.11 129.25 276.11 144.56 241.85 144.56 241.85 155.68 280.19 155.68 280.19 172.19 222.27 172.19 222.27 102.12"/><polygon class="cls-2" points="302.01 102.12 321.8 102.12 321.8 155.17 356.37 155.17 356.37 172.19 302.01 172.19 302.01 102.12"/><polygon class="cls-2" points="373.6 102.12 393.39 102.12 393.39 155.17 427.96 155.17 427.96 172.19 373.6 172.19 373.6 102.12"/><path class="cls-2" d="M442.13,137.36v-.2c0-20.12,16.52-36.44,38.55-36.44S519,116.84,519,137v.2c0,20.12-16.52,36.43-38.55,36.43s-38.34-16.12-38.34-36.23m56.7,0v-.2c0-10.11-7.44-18.92-18.36-18.92s-18,8.61-18,18.72v.2c0,10.11,7.44,18.92,18.25,18.92s18.15-8.61,18.15-18.72"/><path class="cls-3" d="M960.43,290.36l-.07-65-45.18,42.71H154.42c-15.64,0-28.32,12.45-28.32,27.81V405c0,15.35,12.68,27.81,28.32,27.81H932.67c15.65,0,28.33-12.45,28.33-27.81,0,0-.2-112.88-.56-114.67"/><polygon class="cls-4" points="199.49 315.49 219.28 315.49 219.28 368.55 253.85 368.55 253.85 385.57 199.49 385.57 199.49 315.49"/><path class="cls-4" d="M298.2,315h19.07l30.39,70.57H326.45l-5.2-12.51H293.71l-5.1,12.51H267.8Zm17.33,42.94-8-19.92-8.06,19.92Z"/><polygon class="cls-4" points="363.55 315.49 384.46 315.49 401.49 342.62 418.52 315.49 439.43 315.49 439.43 385.57 419.75 385.57 419.75 345.33 401.49 372.75 401.08 372.75 382.93 345.53 382.93 385.57 363.55 385.57 363.55 315.49"/><path class="cls-4" d="M462.61,315.49h30.6c18.05,0,29.68,9.11,29.68,24.63v.2c0,16.52-13,25.23-30.7,25.23H482.4v20H462.61Zm29.17,34.84c7,0,11.32-3.6,11.32-9.11V341c0-6-4.28-9.21-11.42-9.21H482.4v18.52Z"/><path class="cls-4" d="M579.88,315.49h30.6c18.05,0,29.68,9.11,29.68,24.63v.2c0,16.52-13,25.23-30.7,25.23h-9.79v20H579.88Zm29.17,34.84c7,0,11.32-3.6,11.32-9.11V341c0-6-4.28-9.21-11.42-9.21h-9.28v18.52Z"/><path class="cls-4" d="M655.26,350.73v-.2c0-20.12,16.52-36.44,38.55-36.44s38.35,16.12,38.35,36.24v.2c0,20.12-16.52,36.44-38.55,36.44s-38.35-16.12-38.35-36.24m56.7,0v-.2c0-10.11-7.44-18.92-18.36-18.92s-18.05,8.61-18.05,18.72v.2c0,10.11,7.44,18.92,18.26,18.92S712,360.84,712,350.73"/><path class="cls-4" d="M745.36,375.16l11-12.91c7,5.51,14.89,8.41,23.15,8.41,5.3,0,8.16-1.8,8.16-4.8v-.2c0-2.91-2.35-4.51-12-6.71-15.2-3.4-26.92-7.61-26.92-22v-.2c0-13,10.5-22.42,27.64-22.42,12.14,0,21.62,3.2,29.37,9.31l-9.89,13.71c-6.53-4.5-13.66-6.91-20-6.91-4.8,0-7.14,2-7.14,4.5v.21c0,3.2,2.45,4.6,12.34,6.81,16.42,3.5,26.61,8.71,26.61,21.83v.2c0,14.31-11.53,22.82-28.86,22.82-12.64,0-24.67-3.9-33.45-11.61"/><polygon class="cls-4" points="843.27 332.51 821.85 332.51 821.85 315.49 884.47 315.49 884.47 332.51 863.06 332.51 863.06 385.57 843.27 385.57 843.27 332.51"/></svg>