<svg id="Layer_1" data-name="Layer 1" xmlns="http://www.w3.org/2000/svg" viewBox="0 0 129 129"><defs><style>.cls-1{fill:#404142;}.cls-2{fill:#ffd100;}.cls-3{fill:#fff;}</style></defs><title>logo-sv</title><rect class="cls-1" x="2" y="27" width="63" height="23" rx="4" ry="4"/><rect class="cls-2" x="2" y="54" width="85" height="23" rx="4" ry="4"/><path class="cls-3" d="M8.48,33.91H11v3.41h3.24V33.91h2.52V43H14.24V39.56H11V43H8.48Z"/><path class="cls-3" d="M22.82,33.85h2.43L29.12,43h-2.7l-.66-1.62H22.24L21.59,43H18.94ZM25,39.43l-1-2.59-1,2.59Z"/><path class="cls-3" d="M31.31,33.91h2.52V40.8h4.41V43H31.31Z"/><path class="cls-3" d="M40.61,33.91h2.52V40.8h4.41V43H40.61Z"/><path class="cls-3" d="M53,34.08a1.5,1.5,0,0,1-.4-1v0a1.72,1.72,0,0,1,3.44,0v0a1.5,1.5,0,0,1-.4,1L59.37,43h-2.7L56,41.39H52.5L51.85,43H49.19Zm2.31,5.34-1-2.59-1,2.59Zm-.13-6.34v0a.86.86,0,0,0-1.73,0v0a.86.86,0,0,0,1.73,0Z"/><path class="cls-1" d="M7.87,61.42h2.33v3.14h3V61.42h2.33v8.4H13.18V66.62h-3v3.19H7.87Z"/><path class="cls-1" d="M20.52,61.58a1.38,1.38,0,0,1-.37-.92v0a1.59,1.59,0,0,1,3.18,0v0a1.38,1.38,0,0,1-.37.92l3.48,8.24H23.94l-.61-1.5H20.09l-.6,1.5H17Zm2.13,4.93-.94-2.39-.95,2.39Zm-.12-5.85v0a.8.8,0,0,0-1.6,0v0a.8.8,0,0,0,1.6,0Z"/><path class="cls-1" d="M28,61.42H30.3v6.36h4.07v2H28Z"/><path class="cls-1" d="M36.09,61.42h2.33v6.36h4.07v2H36.09Z"/><path class="cls-1" d="M44.2,61.42h4.31a3.1,3.1,0,0,1,2.29.76,1.84,1.84,0,0,1,.54,1.35v0A1.94,1.94,0,0,1,50,65.42a2,2,0,0,1,1.67,2.05v0c0,1.44-1.18,2.31-3.18,2.31H44.2Zm3.73,3.35c.71,0,1.1-.24,1.1-.73v0c0-.46-.36-.72-1.06-.72H46.47v1.48Zm.34,3.18c.71,0,1.12-.28,1.12-.77v0c0-.46-.36-.76-1.14-.76H46.47v1.55Z"/><path class="cls-1" d="M56.4,61.36h2.24l3.57,8.46H59.73l-.61-1.5H55.88l-.6,1.5H52.83Zm2,5.15-.94-2.39-.95,2.39Z"/><path class="cls-1" d="M63.76,61.42h4a3.67,3.67,0,0,1,2.73.91,2.6,2.6,0,0,1,.74,2v0a2.66,2.66,0,0,1-1.73,2.58l2,2.93H68.8l-1.69-2.54h-1v2.54H63.76Zm3.86,4c.79,0,1.25-.38,1.25-1v0c0-.66-.48-1-1.26-1H66.09v2Z"/><path class="cls-1" d="M75.87,61.36h2.24l3.57,8.46H79.19l-.61-1.5H75.34l-.6,1.5H72.29Zm2,5.15L77,64.12,76,66.5Z"/><polygon class="cls-1" points="16 28 2 19 2 33 16 33 16 28"/><path class="cls-1" d="M26.84,81.24l58-.47a4,4,0,0,1,4,4l.11,13,0,2,.1,12-12.51-7.9-49.55.4a4,4,0,0,1-4-4l-.12-15A4,4,0,0,1,26.84,81.24Z"/><polygon class="cls-2" points="73 55 87 46 87 60 73 60 73 55"/><path class="cls-3" d="M29.39,87.91h2.67l2.17,3.52,2.17-3.52h2.67V97H36.55V91.79l-2.33,3.56h-.05l-2.31-3.54V97H29.39Z"/><path class="cls-3" d="M44.6,87.85H47L50.9,97H48.2l-.66-1.62H44L43.38,97H40.73Zm2.21,5.58-1-2.59-1,2.59Z"/><path class="cls-3" d="M52.57,87.91h2.52V94.8H59.5V97H52.57Z"/><path class="cls-3" d="M61.36,87.91H64l2.17,3.52,2.17-3.52H71V97H68.52V91.79l-2.33,3.56h-.05l-2.31-3.54V97H61.36Z"/><path class="cls-3" d="M73.11,92.49v0a4.9,4.9,0,0,1,9.8,0v0a4.9,4.9,0,0,1-9.8,0Zm2.42-7h2.15V87.3H75.53Zm4.81,7v0A2.36,2.36,0,0,0,78,90a2.32,2.32,0,0,0-2.3,2.43v0A2.36,2.36,0,0,0,78,94.92,2.32,2.32,0,0,0,80.34,92.49Zm-2-7h2.15V87.3H78.37Z"/></svg>