<svg id="Layer_1" data-name="Layer 1" xmlns="http://www.w3.org/2000/svg" xmlns:xlink="http://www.w3.org/1999/xlink" viewBox="0 0 26.8 22.4"><defs><style>.cls-1,.cls-5{fill:none;}.cls-2{clip-path:url(#clip-path);}.cls-3{fill:#979797;}.cls-4{clip-path:url(#clip-path-2);}.cls-5{stroke:#979797;stroke-linecap:round;stroke-miterlimit:10;stroke-width:0.8px;}</style><clipPath id="clip-path"><path class="cls-1" d="M5.6,0H21.7a1.71,1.71,0,0,1,1.7,1.8V20.7a1.77,1.77,0,0,1-1.7,1.8H5.6a1.71,1.71,0,0,1-1.7-1.8V1.8A1.77,1.77,0,0,1,5.6,0Z"/></clipPath><clipPath id="clip-path-2"><path class="cls-1" d="M5.6,0H21.7a1.71,1.71,0,0,1,1.7,1.8V16.7H3.9V1.8A1.77,1.77,0,0,1,5.6,0Z"/></clipPath></defs><title>new-proj</title><g class="cls-2"><path class="cls-3" d="M21.8,23.4H5.6a2.71,2.71,0,0,1-2.7-2.8V1.8A2.71,2.71,0,0,1,5.6-1H21.7a2.71,2.71,0,0,1,2.7,2.8V20.7A2.55,2.55,0,0,1,21.8,23.4ZM5.6,1a.71.71,0,0,0-.7.8V20.7a.77.77,0,0,0,.7.8H21.7a.71.71,0,0,0,.7-.8V1.8a.77.77,0,0,0-.7-.8Z"/></g><g class="cls-4"><path class="cls-3" d="M24.5,17.7H2.9V1.8A2.71,2.71,0,0,1,5.6-1H21.7a2.71,2.71,0,0,1,2.7,2.8V17.7Zm-19.6-2H22.5V1.8a.77.77,0,0,0-.7-.8H5.6a.71.71,0,0,0-.7.8Z"/></g><circle class="cls-3" cx="7.4" cy="18.9" r="0.9"/><line class="cls-5" x1="13.65" y1="4.35" x2="13.65" y2="12.35"/><line class="cls-5" x1="17.65" y1="8.35" x2="9.65" y2="8.35"/></svg>