<?xml version="1.0" encoding="UTF-8"?>
<svg width="331px" height="186px" viewBox="0 0 331 186" version="1.1" xmlns="http://www.w3.org/2000/svg" xmlns:xlink="http://www.w3.org/1999/xlink">
    <!-- Generator: Sketch 40.2 (33826) - http://www.bohemiancoding.com/sketch -->
    <title>Artboard Copy</title>
    <desc>Created with Sketch.</desc>
    <defs></defs>
    <g id="Page-1" stroke="none" stroke-width="1" fill="none" fill-rule="evenodd">
        <g id="Artboard-Copy" fill="#FFFFFF">
            <g id="Page-1" transform="translate(48.000000, 60.000000)">
                <path d="M53.0367705,34.292732 C53.0367705,36.3948874 51.3411756,38.1038097 49.2501416,38.1038097 L16.6643626,38.1038097 C15.8282153,38.1038097 15.1498442,37.4218485 15.1498442,36.5791107 L15.1498442,16.7566835 C15.1498442,15.9159553 15.8268839,15.2333243 16.6643626,15.2333243 L49.2501416,15.2333243 C51.3411756,15.2333243 53.0367705,16.9409068 53.0367705,19.043732 L53.0367705,34.292732 Z M68.185949,19.0457417 L68.1892776,19.0457417 C68.1892776,8.52625631 59.7079745,0.000401941748 49.2501416,0.000401941748 L1.51451841,0.000401941748 C0.678371105,0.000401941748 0,0.681023301 0,1.52309126 L0,15.2333243 L0,67.0483049 C0,67.8910427 0.678371105,68.5709942 1.51451841,68.5709942 L13.6353258,68.5709942 C14.4714731,68.5709942 15.1498442,67.8910427 15.1498442,67.0483049 L15.1498442,54.8614311 C15.1498442,54.0193631 15.8268839,53.3360621 16.6643626,53.3360621 L49.2501416,53.3360621 C59.7079745,53.3360621 68.1892776,44.8081981 68.1892776,34.286033 L68.185949,34.286033 L68.185949,19.0457417 Z" id="Fill-1"></path>
                <path d="M133.707477,36.5820583 C133.707477,37.4247961 133.030438,38.1047476 132.19429,38.1047476 L97.3330722,38.1047476 C96.4982564,38.1047476 95.8192195,37.4247961 95.8192195,36.5820583 L95.8192195,19.0460097 L95.8192195,19.0413204 C95.8192195,16.9411748 97.5128173,15.2329223 99.6078456,15.2329223 L129.923511,15.2329223 L129.918851,15.2376117 C132.009885,15.2376117 133.707477,16.9431845 133.707477,19.0460097 L133.707477,36.5820583 Z M129.923511,0 L99.6078456,0 C89.1480156,0 80.6700411,8.52585437 80.6700411,19.0460097 L80.6707068,19.0460097 L80.6707068,67.0733592 C80.6860184,67.9013592 81.3564008,68.5712621 82.1838938,68.5712621 L94.3060326,68.5712621 C95.1421799,68.5712621 95.8192195,67.8906408 95.8192195,67.0485728 L95.8192195,54.8643786 C95.8192195,54.0216408 96.4975907,53.3390097 97.3330722,53.3390097 L132.19429,53.3390097 C133.030438,53.3390097 133.707477,54.0216408 133.707477,54.8643786 L133.707477,67.0485728 C133.707477,67.8906408 134.386514,68.5712621 135.221996,68.5712621 L147.3448,68.5712621 C148.182279,68.5712621 148.86065,67.8906408 148.86065,67.0485728 L148.86065,19.0413204 C148.86065,8.52585437 140.381344,0 129.923511,0 L129.923511,0 Z" id="Fill-3"></path>
                <path d="M215.432089,67.9013592 C215.876126,68.3475146 216.457302,68.5712621 217.039143,68.5712621 L219.716678,68.5712621 L219.71801,68.5712621 L233.353336,68.5712621 C234.190814,68.5712621 234.86852,67.8906408 234.86852,67.0485728 L234.86852,1.52335922 C234.86852,0.681291262 234.192146,0 233.355999,0 L221.235191,0 C220.399044,0 219.721339,0.683300971 219.721339,1.52335922 L219.721339,41.1796019 C219.71335,42.0196602 219.029653,42.6962621 218.192174,42.6868835 C217.807387,42.6821942 217.424596,42.5301262 217.132344,42.2320194 L186.120333,0.66923301 C185.676296,0.221737864 185.09512,0 184.51461,0 L181.835744,0 L181.834412,0 L168.199086,0 C167.361608,0 166.683902,0.681291262 166.683902,1.52335922 L166.683902,67.0485728 C166.683902,67.8906408 167.360276,68.5712621 168.196424,68.5712621 L180.317231,68.5712621 C181.153378,68.5712621 181.830418,67.8906408 181.830418,67.0485728 L181.830418,27.3916602 C181.839072,26.5489223 182.522103,25.8756699 183.360914,25.8823689 C183.745035,25.889068 184.129157,26.0391262 184.420744,26.3392427 L215.432089,67.9013592 Z" id="Fill-5"></path>
            </g>
        </g>
    </g>
</svg>