<svg xmlns="http://www.w3.org/2000/svg" viewBox="0 0 1146.41 703.57"><defs><style>.cls-1{fill:#a0deea;}.cls-2{fill:#00aed9;opacity:0.25;}.cls-3{fill:none;stroke:#007dbc;stroke-linecap:round;}.cls-10,.cls-3,.cls-4,.cls-6,.cls-7{stroke-miterlimit:10;stroke-width:5px;}.cls-4{fill:#f2f2f2;}.cls-4,.cls-7{stroke:#ccc;}.cls-5,.cls-6{fill:#e8d7c5;}.cls-10,.cls-6{stroke:#c69c6d;}.cls-7{fill:#fff;}.cls-8{fill:#00b4e4;}.cls-10,.cls-9{fill:#ddc4a7;}</style></defs><title>pier</title><g id="water"><path class="cls-1" d="M1147.11,446.67a149.82,149.82,0,0,1-149.82,150H0v-150"/><path class="cls-2" d="M-1.75,446.67H762.92a7.43,7.43,0,0,1,7.52,7,7.22,7.22,0,0,1-7.22,7.45H381.66a10.09,10.09,0,0,0-10.09,10.09h0a10.09,10.09,0,0,0,10.09,10.09H754.9a15.54,15.54,0,0,1,15.54,15.54h0a15.54,15.54,0,0,1-15.54,15.54H437.14a9.9,9.9,0,0,0-9.9,9.9h0a9.9,9.9,0,0,0,9.9,9.9H585.32a14.67,14.67,0,0,1,14.79,13.7A14.4,14.4,0,0,1,585.73,561H477.57a10.36,10.36,0,0,0-10.47,9.95,10.14,10.14,0,0,0,10.14,10.33h208a15.4,15.4,0,0,1,15.4,15.4H0"/><line class="cls-3" x1="1147.11" y1="446.67" x2="-1.75" y2="446.67"/></g><g id="pier"><rect class="cls-4" x="21.09" y="130.77" width="10" height="225.39"/><rect class="cls-4" x="181.25" y="130.77" width="10" height="222.89"/><rect class="cls-4" x="6.09" y="125.77" width="200.16" height="10"/><rect class="cls-4" x="61.25" y="271.85" width="10" height="81.8"/><rect class="cls-4" x="101.25" y="271.85" width="10" height="81.8"/><rect class="cls-4" x="141.25" y="271.85" width="10" height="81.8"/><rect class="cls-4" x="221.25" y="271.85" width="10" height="81.8"/><rect class="cls-4" x="261.25" y="271.85" width="10" height="81.8"/><rect class="cls-4" x="301.25" y="271.85" width="10" height="81.8"/><rect class="cls-4" x="341.25" y="271.85" width="10" height="81.8"/><rect class="cls-4" x="381.25" y="271.85" width="10" height="81.8"/><rect class="cls-4" x="421.25" y="271.85" width="10" height="81.8"/><rect class="cls-4" x="461.25" y="271.85" width="10" height="81.8"/><rect class="cls-4" x="501.25" y="271.85" width="10" height="81.8"/><rect class="cls-4" x="541.25" y="271.85" width="10" height="81.8"/><rect class="cls-4" x="581.25" y="271.85" width="10" height="81.8"/><rect class="cls-4" x="621.25" y="271.85" width="10" height="81.8"/><rect class="cls-4" x="661.25" y="271.85" width="10" height="81.8"/><rect class="cls-4" x="701.25" y="271.85" width="10" height="81.8"/><rect class="cls-4" x="741.25" y="271.85" width="10" height="81.8"/><rect class="cls-4" x="781.25" y="271.85" width="10" height="81.8"/><rect class="cls-4" x="821.25" y="271.85" width="10" height="81.8"/><rect class="cls-4" x="861.25" y="271.85" width="10" height="81.8"/><rect class="cls-4" x="901.25" y="271.85" width="10" height="81.8"/><rect class="cls-4" x="941.25" y="271.85" width="10" height="81.8"/><rect class="cls-4" x="981.25" y="271.85" width="10" height="81.8"/><rect class="cls-4" x="1021.25" y="271.85" width="10" height="81.8"/><rect class="cls-4" x="1061.25" y="271.85" width="10" height="81.8"/><rect class="cls-4" x="1101.25" y="271.85" width="10" height="81.8"/><polygon class="cls-5" points="1062.92 394.89 876.23 394.89 866.23 374.59 1072.92 374.59 1062.92 394.89"/><rect class="cls-6" x="906.67" y="394.89" width="125.81" height="101.78"/><rect class="cls-7" x="61.67" y="114.69" width="97.16" height="32.16"/><path class="cls-8" d="M91.79,128.19a4.37,4.37,0,0,1-1.24,3.16,4.78,4.78,0,0,1-3.62,1.42H84.79v5.08h-3.5V123.61h5.64A4.78,4.78,0,0,1,90.55,125,4.37,4.37,0,0,1,91.79,128.19Zm-3.5,0a1.4,1.4,0,0,0-.42-1,1.47,1.47,0,0,0-1.1-.43h-2v2.88h2a1.47,1.47,0,0,0,1.1-.43A1.4,1.4,0,0,0,88.29,128.19Z"/><path class="cls-8" d="M97.33,137.85h-3.5V123.61h3.5Z"/><path class="cls-8" d="M109.89,137.85h-9.68V123.61h9.68v3.12h-6.18v2.38H109v3.12h-5.28v2.5h6.18Z"/><path class="cls-8" d="M123.63,137.85h-4.06l-2.52-5.3h-1.18v5.3h-3.5V123.61H118a4.78,4.78,0,0,1,3.62,1.42,4.37,4.37,0,0,1,1.24,3.16,3.88,3.88,0,0,1-2.32,3.72Zm-4.26-9.66a1.4,1.4,0,0,0-.42-1,1.47,1.47,0,0,0-1.1-.43h-2v2.88h2a1.47,1.47,0,0,0,1.1-.43A1.4,1.4,0,0,0,119.37,128.19Z"/><path class="cls-8" d="M138.95,133.31a4.38,4.38,0,0,1-1.46,3.5A5.14,5.14,0,0,1,134,138a5.07,5.07,0,0,1-3.44-1.16,4.35,4.35,0,0,1-1.48-3.5,8.08,8.08,0,0,1,.4-2.58,16.19,16.19,0,0,1,1.18-2.52l2.68-4.92h3.54l-3.3,5.78a3.14,3.14,0,0,1,1.4-.24,3.71,3.71,0,0,1,2.7,1.1A4.61,4.61,0,0,1,138.95,133.31Zm-3.28,0a1.83,1.83,0,0,0-.47-1.34,1.66,1.66,0,0,0-2.34,0,2.15,2.15,0,0,0,0,2.68,1.66,1.66,0,0,0,2.34,0A1.83,1.83,0,0,0,135.67,133.31Z"/><polygon class="cls-5" points="705.56 394.89 518.86 394.89 508.86 374.59 715.56 374.59 705.56 394.89"/><rect class="cls-6" x="549.31" y="394.89" width="125.81" height="101.78"/><polygon class="cls-6" points="347.73 394.89 161.04 394.89 151.04 374.59 357.73 374.59 347.73 394.89"/><polygon class="cls-6" points="1062.92 394.89 876.23 394.89 866.23 374.59 1072.92 374.59 1062.92 394.89"/><polygon class="cls-6" points="705.56 394.89 518.86 394.89 508.86 374.59 715.56 374.59 705.56 394.89"/><rect class="cls-6" x="191.48" y="394.89" width="125.81" height="101.78"/><rect class="cls-9" x="194.04" y="397.52" width="60.35" height="96.8"/><rect class="cls-9" x="551.86" y="397.52" width="60.35" height="96.73"/><rect class="cls-9" x="909.23" y="397.52" width="60.35" height="96.73"/><polyline class="cls-10" points="0 353.65 1141.14 353.65 1141.14 374.74 0 374.74"/><rect class="cls-6" x="26.09" y="348.38" width="40.16" height="10.54"/><polyline class="cls-6" points="0 348.38 26.09 348.38 26.09 358.93 0 358.93"/><rect class="cls-6" x="66.25" y="348.38" width="40.16" height="10.54"/><rect class="cls-6" x="106.09" y="348.38" width="40.16" height="10.54"/><rect class="cls-6" x="146.25" y="348.38" width="40.16" height="10.54"/><rect class="cls-6" x="186.09" y="348.38" width="40.16" height="10.54"/><rect class="cls-6" x="226.25" y="348.38" width="40.16" height="10.54"/><rect class="cls-6" x="266.09" y="348.38" width="40.16" height="10.54"/><rect class="cls-6" x="306.25" y="348.38" width="40.16" height="10.54"/><rect class="cls-6" x="346.09" y="348.38" width="40.16" height="10.54"/><rect class="cls-6" x="386.25" y="348.38" width="40.16" height="10.54"/><rect class="cls-6" x="426.09" y="348.38" width="40.16" height="10.54"/><rect class="cls-6" x="466.25" y="348.38" width="40.16" height="10.54"/><rect class="cls-6" x="506.09" y="348.38" width="40.16" height="10.54"/><rect class="cls-6" x="546.25" y="348.38" width="40.16" height="10.54"/><rect class="cls-6" x="586.09" y="348.38" width="40.16" height="10.54"/><rect class="cls-6" x="626.25" y="348.38" width="40.16" height="10.54"/><rect class="cls-6" x="666.09" y="348.38" width="40.16" height="10.54"/><rect class="cls-6" x="706.25" y="348.38" width="40.16" height="10.54"/><rect class="cls-6" x="746.09" y="348.38" width="40.16" height="10.54"/><rect class="cls-6" x="786.25" y="348.38" width="40.16" height="10.54"/><rect class="cls-6" x="826.09" y="348.38" width="40.16" height="10.54"/><rect class="cls-6" x="866.25" y="348.38" width="40.16" height="10.54"/><rect class="cls-6" x="906.09" y="348.38" width="40.16" height="10.54"/><rect class="cls-6" x="946.25" y="348.38" width="40.16" height="10.54"/><rect class="cls-6" x="986.09" y="348.38" width="40.16" height="10.54"/><rect class="cls-6" x="1026.25" y="348.38" width="40.16" height="10.54"/><rect class="cls-6" x="1066.09" y="348.38" width="40.16" height="10.54"/><rect class="cls-6" x="1106.25" y="348.38" width="40.16" height="10.54"/><polyline class="cls-7" points="-1.75 309 1147.11 309 1147.11 319 -1.75 319"/><polyline class="cls-7" points="0 250.77 1147.11 250.77 1147.11 271.85 0 271.85"/></g></svg>