<?xml version="1.0" encoding="UTF-8"?>
<svg width="400px" height="400px" viewBox="0 0 400 400" version="1.1" xmlns="http://www.w3.org/2000/svg" xmlns:xlink="http://www.w3.org/1999/xlink">
    <!-- Generator: Sketch 40.2 (33826) - http://www.bohemiancoding.com/sketch -->
    <title>process-1</title>
    <desc>Created with Sketch.</desc>
    <defs>
        <polygon id="path-1" points="0 254 257.271 254 257.271 0.222 0 0.222 0 167.979812"></polygon>
    </defs>
    <g id="Page-1" stroke="none" stroke-width="1" fill="none" fill-rule="evenodd">
        <g id="process-1">
            <g id="Group" transform="translate(67.000000, 73.000000)">
                <g id="Page-1">
                    <g id="Group-30" transform="translate(0.000000, 0.778000)">
                        <mask id="mask-2" fill="white">
                            <use xlink:href="#path-1"></use>
                        </mask>
                        <g id="Clip-9"></g>
                        <path d="M241.965,77.8113 C241.121,73.0043 237.017,69.6493 232.4,69.6733 L170.121,69.6593 C168.135,69.6263 166.126,70.1873 164.373,71.4333 L118.781,103.8463 L103.976,114.3803 C102.593,115.3613 102.256,117.2993 103.213,118.7153 C103.803,119.5803 104.757,120.0493 105.714,120.0493 C106.315,120.0493 106.924,119.8713 107.451,119.4903 L114.884,114.2033 C115.155,115.3953 115.636,116.5593 116.363,117.6273 C118.246,120.3893 121.26,121.8703 124.321,121.8703 C126.23,121.8703 128.153,121.2973 129.836,120.1003 L163.911,95.8763 L169.36,95.8763 L154.209,184.6753 C153.933,186.2823 155.015,187.6013 156.609,187.6013 L169.636,187.6013 L169.636,243.0703 C169.636,249.1073 174.419,254.0003 180.317,254.0003 C186.224,254.0003 191.006,249.1073 191.006,243.0703 L191.006,187.6013 L197.782,187.6013 L197.782,243.0703 C197.782,249.1073 202.565,254.0003 208.467,254.0003 C214.37,254.0003 219.152,249.1073 219.152,243.0703 L219.152,187.6013 L232.178,187.6013 C233.772,187.6013 234.854,186.2823 234.578,184.6753 L219.426,95.8763 L225.469,95.8763 L234.988,150.0973 C235.829,154.8873 239.907,158.2483 244.507,158.2483 C245.071,158.2483 245.648,158.1933 246.228,158.0893 C251.488,157.1223 254.989,151.9823 254.046,146.5983 L241.965,77.8113 Z" id="Fill-22" fill="#FFFFFF" mask="url(#mask-2)"></path>
                        <path d="M195.3364,2.7361 C178.7624,2.7361 165.3204,16.4761 165.3204,33.4241 C165.3204,50.3721 178.7624,64.1111 195.3364,64.1111 C211.9124,64.1111 225.3464,50.3721 225.3464,33.4241 C225.3464,16.4761 211.9124,2.7361 195.3364,2.7361 M176.7554,44.8551 C174.0534,44.8551 171.8564,42.6111 171.8564,39.8421 C171.8564,37.0701 174.0534,34.8301 176.7554,34.8301 C179.4634,34.8301 181.6584,37.0701 181.6584,39.8421 C181.6584,42.6111 179.4634,44.8551 176.7554,44.8551 M199.1604,47.7531 C196.4544,47.7531 194.2614,45.5061 194.2614,42.7371 C194.2614,39.9681 196.4544,37.7271 199.1604,37.7271 C201.8644,37.7271 204.0614,39.9681 204.0614,42.7371 C204.0614,45.5061 201.8644,47.7531 199.1604,47.7531" id="Fill-23" fill="#FFFFFF" mask="url(#mask-2)"></path>
                        <path d="M208.0211,28.9273 C224.2711,25.9273 212.2711,64.1113 212.2711,64.1113 L217.9381,63.0943 C222.6751,58.1393 228.4731,45.9133 229.6051,34.5943 C230.6021,24.6153 224.4311,11.3543 216.1051,5.4273 C206.2711,-1.5727 173.9381,-6.4057 163.9381,24.5943 C163.9381,24.5943 187.0541,32.7983 208.0211,28.9273 Z" id="Fill-24" fill="#FFFFFF" mask="url(#mask-2)"></path>
                        <path d="M217.9615,69.6596 L211.1465,69.6596 C211.1465,69.6596 208.5835,80.3446 195.7715,80.3446 C182.9595,80.3446 178.4345,69.6596 178.4345,69.6596 L170.0605,69.6596 L169.3005,95.8756 L154.1485,184.6746 C153.8735,186.2826 154.9545,187.6016 156.5495,187.6016 L169.5755,187.6016 L190.9465,187.6016 L197.7215,187.6016 L219.0925,187.6016 L232.1175,187.6016 C233.7125,187.6016 234.7935,186.2826 234.5185,184.6746 L219.3655,95.8756 L217.9615,69.6596 Z" id="Fill-26" fill="#FFFFFF" mask="url(#mask-2)"></path>
                        <path d="M172.4056,187.6017 L190.9466,187.6017 L197.7216,187.6017 L219.0926,187.6017 L232.1176,187.6017 C233.7126,187.6017 234.7936,186.2827 234.5176,184.6747 L219.3656,95.8757 L172.4056,187.6017 Z" id="Fill-27" fill="#FFFFFF" mask="url(#mask-2)"></path>
                        <path d="M208.3994,254 L208.3994,254 C214.3384,254 219.1524,249.186 219.1524,243.247 L219.1524,202.57 L197.6464,243.247 C197.6464,249.186 202.4604,254 208.3994,254" id="Fill-28" fill="#FFFFFF" mask="url(#mask-2)"></path>
                        <path d="M190.9889,243.247 L190.9889,202.57 L169.4829,243.247 C169.4829,249.186 174.2969,254 180.2359,254 C186.1749,254 190.9889,249.186 190.9889,243.247 Z" id="Fill-29" fill="#FFFFFF" mask="url(#mask-2)"></path>
                    </g>
                </g>
                <path d="M82.3615481,192.229508 C84.0209275,192.229508 85.3661202,193.572089 85.3661202,195.235661 L85.3661202,242.993847 C85.3661202,244.6541 84.0268461,246 82.3615481,246 L25.6384519,246 C23.9790725,246 22.6338798,244.657419 22.6338798,242.993847 L22.6338798,195.235661 C22.6338798,193.575409 23.9731539,192.229508 25.6384519,192.229508 L82.3615481,192.229508 Z M22.6338798,62.284153 C21.5136612,62.284153 20.6174863,63.1803279 20.6174863,64.3005464 C20.6174863,65.420765 21.5136612,66.3169399 22.6338798,66.3169399 L85.3661202,66.3169399 C86.4863388,66.3169399 87.3825137,65.420765 87.3825137,64.3005464 C87.3825137,63.1803279 86.4863388,62.284153 85.3661202,62.284153 L22.6338798,62.284153 Z M13,53.0983607 L13.3006796,55.5037972 C13.5058266,57.1449735 15.0214459,58.4754098 16.6625028,58.4754098 L91.3374972,58.4754098 C92.9890339,58.4754098 94.4940137,57.1462513 94.6993204,55.5037972 L95,53.0983607 C82.6775956,47.4972678 68.7868852,44.3606557 54,44.3606557 C39.4371585,44.3606557 25.5464481,47.4972678 13,53.0983607 Z M82.9016393,185.65018 C82.9016393,187.304068 81.5579006,188.644809 79.8954662,188.644809 L28.1045338,188.644809 C26.4442702,188.644809 25.0983607,187.311267 25.0983607,185.65018 L25.0983607,72.8962683 C25.0983607,71.2423804 26.4420994,69.9016393 28.1045338,69.9016393 L79.8954662,69.9016393 C81.5557298,69.9016393 82.9016393,71.2351808 82.9016393,72.8962683 L82.9016393,185.65018 Z M55.0294649,81.3278689 C56.6881538,81.3278689 58.0327869,79.9778731 58.0327869,78.3245469 L58.0327869,76.2656171 C58.0327869,74.6069281 56.6827912,73.2622951 55.0294649,73.2622951 L52.9705351,73.2622951 C51.3118462,73.2622951 49.9672131,74.6122908 49.9672131,76.2656171 L49.9672131,78.3245469 C49.9672131,79.9832358 51.3172088,81.3278689 52.9705351,81.3278689 L55.0294649,81.3278689 Z M47.1449539,101.939891 C45.4865105,101.939891 44.1420765,103.279846 44.1420765,104.939385 L44.1420765,126.721817 C44.1420765,128.378392 45.4818271,129.721311 47.1449539,129.721311 L60.6310024,129.721311 C62.2894458,129.721311 63.6338798,128.381356 63.6338798,126.721817 L63.6338798,104.939385 C63.6338798,103.28281 62.2941292,101.939891 60.6310024,101.939891 L47.1449539,101.939891 Z M69.2349727,84.9125683 C69.1112368,84.9125683 67.6626287,84.9125683 66.008724,84.9125683 L41.991276,84.9125683 C40.333204,84.9125683 38.989071,86.2513757 38.989071,87.910194 L38.989071,91.9969098 C38.989071,93.6524528 40.3277261,94.9945355 41.9858273,94.9945355 L66.2382164,94.9945355 C67.8932792,94.9945355 69.2349727,93.6557281 69.2349727,91.9969098 L69.2349727,87.910194 C69.2349727,86.2546511 69.010929,84.9125683 69.010929,84.9125683 L69.2349727,84.9125683 Z M64.8676326,90.8512391 C66.0422886,92.0258952 66.9945355,91.6356329 66.9945355,89.971274 L66.9945355,89.9358298 C66.9945355,88.2751824 65.6519767,86.9289617 63.9878698,86.9289617 L44.0121302,86.9289617 C42.3515946,86.9289617 41.0054645,88.2714709 41.0054645,89.9358298 L41.0054645,89.971274 C41.0054645,91.6319214 41.9550635,92.028543 43.1323674,90.8512391 L42.0151736,91.968433 C43.1898296,90.7937769 45.4817264,89.8415301 47.1364893,89.8415301 L60.8635107,89.8415301 C62.5172792,89.8415301 64.8075225,90.7911291 65.9848264,91.968433 L64.8676326,90.8512391 Z" id="Shape" fill="#FFFFFF"></path>
            </g>
        </g>
    </g>
</svg>