<?xml version="1.0" encoding="UTF-8"?>
<svg width="400px" height="400px" viewBox="0 0 400 400" version="1.1" xmlns="http://www.w3.org/2000/svg" xmlns:xlink="http://www.w3.org/1999/xlink">
    <!-- Generator: Sketch 40.2 (33826) - http://www.bohemiancoding.com/sketch -->
    <title>process-2</title>
    <desc>Created with Sketch.</desc>
    <defs></defs>
    <g id="Page-1" stroke="none" stroke-width="1" fill="none" fill-rule="evenodd">
        <g id="process-2" fill="#FFFFFF">
            <g id="Page-1" transform="translate(166.000000, 84.000000)">
                <g id="Group-31" transform="translate(0.000000, 0.140000)">
                    <path d="M46.1474,87.4377 L46.1374,97.3597 L34.9634,90.8377 L4.9984,90.8377 C2.6734,90.8377 0.7864,88.9367 0.7864,86.5917 L0.7864,69.9317 C0.7864,67.5847 2.6734,65.6857 4.9984,65.6857 L42.0204,65.6857 C44.3484,65.6857 46.2304,67.5847 46.2304,69.9317 C46.2304,69.9317 46.2014,87.1647 46.1474,87.4377" id="Fill-22"></path>
                    <path d="M167.541,130.3469 L161.579,97.1349 L156.854,70.8039 L155.735,64.6009 C154.912,60.0039 150.9,56.7959 146.392,56.8159 L146.392,56.8069 L133.546,56.8069 L124.32,56.8069 C118.275,63.8219 109.341,68.2729 99.378,68.2729 C89.415,68.2729 80.485,63.8219 74.444,56.8069 L72.667,56.8069 L72.667,56.8159 C68.157,56.7959 64.145,60.0039 63.322,64.6009 L62.206,70.8039 L57.482,97.1349 L55.77,106.6569 L57.177,106.9119 C60.757,107.5699 63.644,110.7999 63.902,114.4269 L64.819,127.2939 C64.948,129.1269 64.389,130.8169 63.233,132.0569 C62.128,133.2429 60.588,133.8979 58.903,133.8979 C58.298,133.8979 57.682,133.8139 57.07,133.6429 L51.376,132.0719 C51.393,136.5479 54.593,140.5099 59.154,141.3319 C59.724,141.4319 60.287,141.4809 60.84,141.4809 C65.33,141.4809 69.319,138.2689 70.142,133.6879 L79.447,81.8619 L84.774,81.8619 L69.96,166.7389 C69.689,168.2789 70.747,169.5379 72.31,169.5379 L85.033,169.5379 L85.033,222.5569 C85.033,228.3239 89.717,232.9999 95.48,232.9999 C101.252,232.9999 105.93,228.3239 105.93,222.5569 L105.93,169.5379 L112.553,169.5379 L112.553,222.5569 C112.553,228.3239 117.227,232.9999 122.998,232.9999 C128.76,232.9999 133.444,228.3239 133.444,222.5569 L133.444,169.5379 L146.17,169.5379 C147.725,169.5379 148.786,168.2789 148.521,166.7389 L133.709,81.8619 L139.61,81.8619 L148.919,133.6879 C149.74,138.2689 153.722,141.4809 158.219,141.4809 C158.776,141.4809 159.338,141.4319 159.903,141.3319 C165.044,140.4059 168.461,135.4869 167.541,130.3469" id="Fill-23"></path>
                    <path d="M45.1601,108.4159 C43.6241,108.4159 42.8281,109.5829 43.3691,111.2459 L47.5401,124.1779 C47.6171,124.4039 47.7091,124.6349 47.8251,124.8659 L47.9931,125.1569 L48.2181,125.5419 L48.5251,125.9519 L48.7001,126.1809 C48.8421,126.3479 48.9901,126.5109 49.1491,126.6719 L49.2431,126.7719 C49.4291,126.9559 49.6231,127.1269 49.8271,127.2939 L49.8441,127.3069 C50.4741,127.8259 51.1671,128.2239 51.8541,128.4569 L51.8561,128.4569 L52.1111,128.5509 L58.0241,130.1779 C58.3271,130.2659 58.6281,130.3039 58.9051,130.3039 C60.3541,130.3039 61.3521,129.2029 61.2331,127.5509 L60.3191,114.6809 C60.1791,112.7089 58.4751,110.8039 56.5321,110.4469 L55.1361,110.1919 L45.7941,108.4779 C45.5691,108.4359 45.3621,108.4159 45.1601,108.4159" id="Fill-24"></path>
                    <path d="M99.3776,6.0133 C83.1776,6.0133 70.0496,19.1463 70.0496,35.3483 C70.0496,51.5443 83.1776,64.6783 99.3776,64.6783 C115.5816,64.6783 128.7136,51.5443 128.7136,35.3483 C128.7136,19.1463 115.5816,6.0133 99.3776,6.0133 M81.2116,50.8493 C78.5646,50.8493 76.4166,48.7053 76.4166,46.0563 C76.4166,43.4123 78.5646,41.2673 81.2116,41.2673 C83.8596,41.2673 85.9996,43.4123 85.9996,46.0563 C85.9996,48.7053 83.8596,50.8493 81.2116,50.8493 M100.3916,53.7023 C97.7456,53.7023 95.6036,51.5593 95.6036,48.9123 C95.6036,46.2663 97.7456,44.1243 100.3916,44.1243 C103.0406,44.1243 105.1866,46.2663 105.1866,48.9123 C105.1866,51.5593 103.0406,53.7023 100.3916,53.7023" id="Fill-25"></path>
                    <path d="M133.546,56.8064 L124.32,56.8064 C124.32,56.8064 115.49,68.2634 100.075,68.2634 C95.434,68.2634 89.428,67.4904 84.779,64.8494 L84.5,81.8764 L69.349,170.6754 C69.073,172.2824 70.155,173.6014 71.749,173.6014 L84.776,173.6014 L106.146,173.6014 L112.922,173.6014 L134.292,173.6014 L147.318,173.6014 C148.913,173.6014 149.994,172.2824 149.718,170.6754 L134.566,81.8764 L133.546,56.8064 Z" id="Fill-26"></path>
                    <path d="M67.9476,29.5928 C67.9476,29.5928 88.0186,47.9988 115.0496,37.1898 C123.3656,33.8648 115.2406,66.1118 115.2406,66.1118 L120.9066,65.0938 C125.6436,60.1398 131.4416,47.9128 132.5736,36.5938 C133.5716,26.6148 130.0946,14.4268 122.0736,8.0938 C106.2406,-4.4062 74.7806,-2.7822 67.9476,29.5928" id="Fill-27"></path>
                    <path d="M87.6057,173.6017 L106.1467,173.6017 L112.9217,173.6017 L134.2927,173.6017 L147.3177,173.6017 C148.9127,173.6017 149.9937,172.2827 149.7177,170.6747 L134.5657,81.8757 L87.6057,173.6017 Z" id="Fill-28"></path>
                    <path d="M122.6153,233 L122.6153,233 C128.5543,233 133.3683,228.186 133.3683,222.247 L133.3683,181.57 L111.8623,222.247 C111.8623,228.186 116.6763,233 122.6153,233" id="Fill-29"></path>
                    <path d="M95.4518,233 L95.4518,233 C101.3908,233 106.2048,228.186 106.2048,222.247 L106.2048,181.57 L84.6988,222.247 C84.6988,228.186 89.5128,233 95.4518,233" id="Fill-30"></path>
                </g>
            </g>
            <g id="Group-Copy" transform="translate(83.000000, 106.000000)">
                <path d="M69.3615481,148.229508 C71.0209275,148.229508 72.3661202,149.572089 72.3661202,151.235661 L72.3661202,198.993847 C72.3661202,200.6541 71.0268461,202 69.3615481,202 L12.6384519,202 C10.9790725,202 9.63387978,200.657419 9.63387978,198.993847 L9.63387978,151.235661 C9.63387978,149.575409 10.9731539,148.229508 12.6384519,148.229508 L69.3615481,148.229508 Z M9.63387978,18.284153 C8.5136612,18.284153 7.61748634,19.1803279 7.61748634,20.3005464 C7.61748634,21.420765 8.5136612,22.3169399 9.63387978,22.3169399 L72.3661202,22.3169399 C73.4863388,22.3169399 74.3825137,21.420765 74.3825137,20.3005464 C74.3825137,19.1803279 73.4863388,18.284153 72.3661202,18.284153 L9.63387978,18.284153 Z M0,9.09836066 L0.300679568,11.5037972 C0.505826611,13.1449735 2.02144591,14.4754098 3.66250276,14.4754098 L78.3374972,14.4754098 C79.9890339,14.4754098 81.4940137,13.1462513 81.6993204,11.5037972 L82,9.09836066 C69.6775956,3.49726776 55.7868852,0.360655738 41,0.360655738 C26.4371585,0.360655738 12.5464481,3.49726776 0,9.09836066 Z M69.9016393,141.65018 C69.9016393,143.304068 68.5579006,144.644809 66.8954662,144.644809 L15.1045338,144.644809 C13.4442702,144.644809 12.0983607,143.311267 12.0983607,141.65018 L12.0983607,28.8962683 C12.0983607,27.2423804 13.4420994,25.9016393 15.1045338,25.9016393 L66.8954662,25.9016393 C68.5557298,25.9016393 69.9016393,27.2351808 69.9016393,28.8962683 L69.9016393,141.65018 Z M42.0294649,37.3278689 C43.6881538,37.3278689 45.0327869,35.9778731 45.0327869,34.3245469 L45.0327869,32.2656171 C45.0327869,30.6069281 43.6827912,29.2622951 42.0294649,29.2622951 L39.9705351,29.2622951 C38.3118462,29.2622951 36.9672131,30.6122908 36.9672131,32.2656171 L36.9672131,34.3245469 C36.9672131,35.9832358 38.3172088,37.3278689 39.9705351,37.3278689 L42.0294649,37.3278689 Z M34.1449539,57.9398907 C32.4865105,57.9398907 31.1420765,59.2798464 31.1420765,60.9393852 L31.1420765,82.721817 C31.1420765,84.378392 32.4818271,85.7213115 34.1449539,85.7213115 L47.6310024,85.7213115 C49.2894458,85.7213115 50.6338798,84.3813558 50.6338798,82.721817 L50.6338798,60.9393852 C50.6338798,59.2828102 49.2941292,57.9398907 47.6310024,57.9398907 L34.1449539,57.9398907 Z M56.2349727,40.9125683 C56.1112368,40.9125683 54.6626287,40.9125683 53.008724,40.9125683 L28.991276,40.9125683 C27.333204,40.9125683 25.989071,42.2513757 25.989071,43.910194 L25.989071,47.9969098 C25.989071,49.6524528 27.3277261,50.9945355 28.9858273,50.9945355 L53.2382164,50.9945355 C54.8932792,50.9945355 56.2349727,49.6557281 56.2349727,47.9969098 L56.2349727,43.910194 C56.2349727,42.2546511 56.010929,40.9125683 56.010929,40.9125683 L56.2349727,40.9125683 Z M51.8676326,46.8512391 C53.0422886,48.0258952 53.9945355,47.6356329 53.9945355,45.971274 L53.9945355,45.9358298 C53.9945355,44.2751824 52.6519767,42.9289617 50.9878698,42.9289617 L31.0121302,42.9289617 C29.3515946,42.9289617 28.0054645,44.2714709 28.0054645,45.9358298 L28.0054645,45.971274 C28.0054645,47.6319214 28.9550635,48.028543 30.1323674,46.8512391 L29.0151736,47.968433 C30.1898296,46.7937769 32.4817264,45.8415301 34.1364893,45.8415301 L47.8635107,45.8415301 C49.5172792,45.8415301 51.8075225,46.7911291 52.9848264,47.968433 L51.8676326,46.8512391 Z" id="Shape"></path>
            </g>
        </g>
    </g>
</svg>