<?xml version="1.0" encoding="UTF-8"?>
<svg width="400px" height="400px" viewBox="0 0 400 400" version="1.1" xmlns="http://www.w3.org/2000/svg" xmlns:xlink="http://www.w3.org/1999/xlink">
    <!-- Generator: Sketch 40.2 (33826) - http://www.bohemiancoding.com/sketch -->
    <title>process-3</title>
    <desc>Created with Sketch.</desc>
    <defs></defs>
    <g id="Page-1" stroke="none" stroke-width="1" fill="none" fill-rule="evenodd">
        <g id="process-3" fill="#FFFFFF">
            <g id="Group-Copy-2" transform="translate(85.000000, 125.000000)">
                <path d="M69.3615481,148.229508 C71.0209275,148.229508 72.3661202,149.572089 72.3661202,151.235661 L72.3661202,198.993847 C72.3661202,200.6541 71.0268461,202 69.3615481,202 L12.6384519,202 C10.9790725,202 9.63387978,200.657419 9.63387978,198.993847 L9.63387978,151.235661 C9.63387978,149.575409 10.9731539,148.229508 12.6384519,148.229508 L69.3615481,148.229508 Z M9.63387978,18.284153 C8.5136612,18.284153 7.61748634,19.1803279 7.61748634,20.3005464 C7.61748634,21.420765 8.5136612,22.3169399 9.63387978,22.3169399 L72.3661202,22.3169399 C73.4863388,22.3169399 74.3825137,21.420765 74.3825137,20.3005464 C74.3825137,19.1803279 73.4863388,18.284153 72.3661202,18.284153 L9.63387978,18.284153 Z M0,9.09836066 L0.300679568,11.5037972 C0.505826611,13.1449735 2.02144591,14.4754098 3.66250276,14.4754098 L78.3374972,14.4754098 C79.9890339,14.4754098 81.4940137,13.1462513 81.6993204,11.5037972 L82,9.09836066 C69.6775956,3.49726776 55.7868852,0.360655738 41,0.360655738 C26.4371585,0.360655738 12.5464481,3.49726776 0,9.09836066 Z M69.9016393,141.65018 C69.9016393,143.304068 68.5579006,144.644809 66.8954662,144.644809 L15.1045338,144.644809 C13.4442702,144.644809 12.0983607,143.311267 12.0983607,141.65018 L12.0983607,28.8962683 C12.0983607,27.2423804 13.4420994,25.9016393 15.1045338,25.9016393 L66.8954662,25.9016393 C68.5557298,25.9016393 69.9016393,27.2351808 69.9016393,28.8962683 L69.9016393,141.65018 Z M42.0294649,37.3278689 C43.6881538,37.3278689 45.0327869,35.9778731 45.0327869,34.3245469 L45.0327869,32.2656171 C45.0327869,30.6069281 43.6827912,29.2622951 42.0294649,29.2622951 L39.9705351,29.2622951 C38.3118462,29.2622951 36.9672131,30.6122908 36.9672131,32.2656171 L36.9672131,34.3245469 C36.9672131,35.9832358 38.3172088,37.3278689 39.9705351,37.3278689 L42.0294649,37.3278689 Z M34.1449539,57.9398907 C32.4865105,57.9398907 31.1420765,59.2798464 31.1420765,60.9393852 L31.1420765,82.721817 C31.1420765,84.378392 32.4818271,85.7213115 34.1449539,85.7213115 L47.6310024,85.7213115 C49.2894458,85.7213115 50.6338798,84.3813558 50.6338798,82.721817 L50.6338798,60.9393852 C50.6338798,59.2828102 49.2941292,57.9398907 47.6310024,57.9398907 L34.1449539,57.9398907 Z M56.2349727,40.9125683 C56.1112368,40.9125683 54.6626287,40.9125683 53.008724,40.9125683 L28.991276,40.9125683 C27.333204,40.9125683 25.989071,42.2513757 25.989071,43.910194 L25.989071,47.9969098 C25.989071,49.6524528 27.3277261,50.9945355 28.9858273,50.9945355 L53.2382164,50.9945355 C54.8932792,50.9945355 56.2349727,49.6557281 56.2349727,47.9969098 L56.2349727,43.910194 C56.2349727,42.2546511 56.010929,40.9125683 56.010929,40.9125683 L56.2349727,40.9125683 Z M51.8676326,46.8512391 C53.0422886,48.0258952 53.9945355,47.6356329 53.9945355,45.971274 L53.9945355,45.9358298 C53.9945355,44.2751824 52.6519767,42.9289617 50.9878698,42.9289617 L31.0121302,42.9289617 C29.3515946,42.9289617 28.0054645,44.2714709 28.0054645,45.9358298 L28.0054645,45.971274 C28.0054645,47.6319214 28.9550635,48.028543 30.1323674,46.8512391 L29.0151736,47.968433 C30.1898296,46.7937769 32.4817264,45.8415301 34.1364893,45.8415301 L47.8635107,45.8415301 C49.5172792,45.8415301 51.8075225,46.7911291 52.9848264,47.968433 L51.8676326,46.8512391 Z" id="Shape"></path>
            </g>
            <g id="Page-1" transform="translate(155.000000, 66.000000)">
                <g id="Group-31" transform="translate(0.000000, 0.008550)">
                    <path d="M167.121559,165.32831 L155.715593,101.76001 C154.921153,97.31876 151.043864,94.21701 146.691051,94.23981 L146.691051,94.22651 L87.8882034,94.22651 L87.8882034,94.24361 C86.0136271,94.19896 84.1172203,94.71671 82.4628475,95.86716 L72.7349831,102.63591 L64.2732881,108.52211 L61.416339,110.51426 L55.3759322,94.36521 C53.6038644,89.63421 48.3398644,87.23546 43.6092881,89.00626 C43.0863051,89.20101 42.5965424,89.43851 42.1390508,89.70831 C38.4060339,91.92846 36.6785763,96.57016 38.2532203,100.77961 L45.9328136,121.28726 L50.7450169,134.16831 L50.7497627,134.17211 C51.6884746,136.66396 54.4780339,137.62251 57.2495593,135.69306 L57.2552542,135.68926 L57.26,135.68546 L64.3008136,130.78726 L64.3046102,130.78346 L82.0271864,118.45816 L87.1706441,118.45816 C87.1706441,118.45816 73.6309831,203.21526 75.1382373,203.21526 L87.4297627,203.21526 L87.4297627,254.47726 C87.4297627,260.05376 91.9429831,264.57481 97.5183051,264.57481 C103.091729,264.57481 107.604949,260.05376 107.604949,254.47726 L107.604949,203.21526 L114.004136,203.21526 L114.004136,254.47726 C114.004136,260.05376 118.522102,264.57481 124.092678,264.57481 C129.666102,264.57481 134.177424,260.05376 134.177424,254.47726 L134.177424,203.21526 L146.481288,203.21526 C147.984746,203.21526 149.005085,202.00116 148.743119,200.51536 L134.443186,118.45816 L140.144746,118.45816 L149.134169,168.55831 C149.926712,172.98531 153.775525,176.09181 158.115051,176.09181 C158.656068,176.09181 159.198983,176.04526 159.739051,175.94646 C164.71261,175.05346 168.014712,170.29871 167.121559,165.32831" id="Fill-22"></path>
                    <path d="M52.3898034,63.096245 L43.3234983,64.449045 C41.4394305,64.729295 40.1201085,66.505795 40.3991593,68.393445 L42.7729898,84.336345 C44.0828203,83.888895 45.4420068,83.656145 46.8163797,83.656145 C51.3893966,83.656145 55.5931932,86.173645 57.800922,90.088595 C58.9342102,89.376095 59.605261,88.040395 59.4011932,86.636295 L56.3325831,66.022245 C56.0554305,64.129845 54.2757695,62.815995 52.3898034,63.096245" id="Fill-23"></path>
                    <path d="M118.636475,33.540605 C102.988746,33.540605 90.3023729,46.237355 90.3023729,61.900005 C90.3023729,77.564555 102.988746,90.261305 118.636475,90.261305 C134.286102,90.261305 146.968678,77.564555 146.968678,61.900005 C146.968678,46.237355 134.286102,33.540605 118.636475,33.540605 M104.68678,53.670155 C102.13261,53.670155 100.062508,51.595355 100.062508,49.036055 C100.062508,46.479605 102.13261,44.406705 104.68678,44.406705 C107.244746,44.406705 109.312949,46.479605 109.312949,49.036055 C109.312949,51.595355 107.244746,53.670155 104.68678,53.670155 M124.920814,58.301405 C122.364746,58.301405 120.294644,56.230405 120.294644,53.670155 C120.294644,51.110855 122.364746,49.036055 124.920814,49.036055 C127.47878,49.036055 129.545085,51.110855 129.545085,53.670155 C129.545085,56.230405 127.47878,58.301405 124.920814,58.301405" id="Fill-24"></path>
                    <path d="M84.6166644,0.941735 L7.20378305,0.941735 C3.47266441,0.941735 0.447715254,3.815485 0.447715254,7.357085 L0.447715254,34.591685 C0.447715254,38.134235 3.47266441,41.005135 7.20378305,41.005135 L38.3568678,41.005135 L47.4013424,56.491085 L56.2218169,41.005135 L84.6166644,41.005135 C88.3468339,41.005135 91.3727322,38.134235 91.3727322,34.591685 L91.3727322,7.357085 C91.3727322,3.815485 88.3468339,0.941735 84.6166644,0.941735" id="Fill-25"></path>
                    <path d="M133.672854,93.92441 L127.20438,93.92441 C127.20438,93.92441 124.771702,104.07516 112.611159,104.07516 C100.450617,104.07516 96.1557017,93.92441 96.1557017,93.92441 L88.2074983,93.92441 L88.2074983,93.93961 L87.4861424,118.82961 L73.1045831,203.18866 C72.8435661,204.71626 73.8696,205.96931 75.3834983,205.96931 L87.7471593,205.96931 L108.031498,205.96931 L114.462007,205.96931 L134.746346,205.96931 L147.109058,205.96931 C148.622956,205.96931 149.64899,204.71626 149.387973,203.18866 L135.005464,118.82961 L133.672854,93.92441 Z" id="Fill-26"></path>
                    <path d="M98.7216407,37.41233 C98.7216407,37.41233 98.4008271,38.68153 99.6793356,38.68628 C106.882454,38.70813 131.225369,39.52418 137.169912,49.39088 C145.290861,62.86853 139.029302,76.57418 135.232692,79.33583 L135.864827,86.61853 C135.864827,86.61853 149.784149,79.53723 150.932624,61.90143 C152.082047,44.26468 141.414522,32.95303 128.588624,30.33103 C106.283539,25.77103 98.7216407,37.41233 98.7216407,37.41233" id="Fill-27"></path>
                    <path d="M90.4333559,205.969405 L108.031593,205.969405 L114.462102,205.969405 L134.746441,205.969405 L147.109153,205.969405 C148.623051,205.969405 149.649085,204.716355 149.387119,203.188755 L135.005559,118.829705 L90.4333559,205.969405 Z" id="Fill-28"></path>
                    <path d="M124.611864,264.575 L124.611864,264.575 C130.248881,264.575 134.818102,260.0017 134.818102,254.35965 L134.818102,215.7165 L114.405627,254.35965 C114.405627,260.0017 118.974847,264.575 124.611864,264.575" id="Fill-29"></path>
                    <path d="M97.8805017,264.575 L97.8805017,264.575 C103.517519,264.575 108.086739,260.0017 108.086739,254.35965 L108.086739,215.7165 L87.6742644,254.35965 C87.6742644,260.0017 92.2434847,264.575 97.8805017,264.575" id="Fill-30"></path>
                </g>
            </g>
        </g>
    </g>
</svg>