<svg id="flat.2" xmlns="http://www.w3.org/2000/svg" viewBox="0 0 172.21 525.57"><defs><style>.cls-1{fill:#ccc;}.cls-2,.cls-4{fill:#6cbdc1;}.cls-3{fill:#85d4dd;}.cls-4{opacity:0.25;}.cls-5{fill:#fff;}.cls-6{fill:#666;}</style></defs><title>pump</title><path class="cls-1" d="M100.41,381.67l0-8.13a15.82,15.82,0,0,0,12.05-5.72,17,17,0,0,0,4.13-13.21l-.1-.83a25.13,25.13,0,0,1,10.06-23.15l30.71-22.57a17,17,0,0,0,6.91-13.76l-.05-8.62A17,17,0,0,0,147,268.82l-16.86.1A25.11,25.11,0,0,1,104.93,244l-.16-26,8.13,0,.16,26a17,17,0,0,0,17.05,16.85l16.86-.1a25.11,25.11,0,0,1,25.23,24.93l.05,8.62A25.15,25.15,0,0,1,162,314.61l-30.71,22.57a17,17,0,0,0-6.8,15.65l.1.83a25.11,25.11,0,0,1-6.11,19.55A24,24,0,0,1,100.41,381.67Z"/><rect class="cls-1" x="56.64" y="186.5" width="14.74" height="21.47"/><path class="cls-2" d="M110.91,420.71H97.48v-8.13h13.43a23.06,23.06,0,0,0,23-23V343.82a23.06,23.06,0,0,0-23-23H97.48v-8.13h13.43a31.19,31.19,0,0,1,31.16,31.16v45.74A31.19,31.19,0,0,1,110.91,420.71Z"/><rect class="cls-2" x="97.48" y="212.02" width="20.33" height="4.77"/><rect class="cls-3" x="30.15" y="173.88" width="66.65" height="12.62"/><path class="cls-2" d="M100.19,189.88H26.76V170.49h73.42Zm-66.65-6.77H93.41v-5.85H33.54Z"/><rect class="cls-3" x="23.38" y="479.92" width="80.94" height="27.52"/><path class="cls-2" d="M107.7,510.83H20V476.53H107.7Zm-80.94-6.77h74.17V483.3H26.76Z"/><polygon class="cls-3" points="97.48 207.96 97.48 220.58 88 220.58 88 234.12 97.48 234.12 97.48 479.92 30.2 479.92 30.2 234.12 39.68 234.12 39.68 220.58 30.2 220.58 30.2 207.96 97.48 207.96"/><path class="cls-2" d="M100.86,483.31h-74V230.74H36.3V224H26.81V204.57h74V224H91.38v6.77h9.48Zm-67.28-6.77h60.5v-239H84.61V217.19h9.48v-5.85H33.59v5.85h9.48v20.32H33.59Z"/><polygon class="cls-4" points="94.12 237.59 84.66 237.61 84.63 217.27 94.1 217.27 94.12 211.41 62.68 211.41 62.63 217.27 43.06 217.3 43.06 237.51 62.63 237.61 62.68 476.8 94.02 476.8 94.12 237.59"/><rect class="cls-4" x="62.62" y="482.61" width="38.29" height="21.36"/><rect class="cls-5" x="43.6" y="249.56" width="40.47" height="33.44"/><path class="cls-6" d="M54.12,276.33V261.78L50,265.35v-4.74L54.12,257h4.44v19.29Z"/><path class="cls-6" d="M70.19,276.49c-3.2,0-6.42-1.71-6.42-6h4.45a2,2,0,1,0,4,0,2,2,0,0,0-2.06-2h-.62v-3.85h.62a1.83,1.83,0,1,0-1.68-1.84H64c0-3.63,2.76-5.83,6.21-5.83s6.21,2.38,6.21,5.72a4.1,4.1,0,0,1-2,3.77,4.74,4.74,0,0,1,2.22,4.2C76.61,274.59,73.57,276.49,70.19,276.49Z"/></svg>