<svg xmlns="http://www.w3.org/2000/svg" viewBox="0 0 25 25"><defs><style>.a{fill:#2a2a2a;}</style></defs><title>Artboard 1</title><path class="a" d="M22.5,6.31a6.79,6.79,0,0,1-.93,1.15,6.88,6.88,0,0,1-.95.84.28.28,0,0,0-.13.26A11.53,11.53,0,0,1,20,12.3a12,12,0,0,1-3.38,5.43,11,11,0,0,1-5.38,2.71,12.88,12.88,0,0,1-3.1.22,11.58,11.58,0,0,1-4.39-1.12,9,9,0,0,1-1.24-.71,8.45,8.45,0,0,0,6-1.7A5.05,5.05,0,0,1,7.6,17a4.1,4.1,0,0,1-2.88-2.63c0-.14,0-.11.11-.09a4.07,4.07,0,0,0,1.63-.07c0-.07-.12-.06-.18-.08a4.05,4.05,0,0,1-3-3.25,4.36,4.36,0,0,1-.07-.62c0-.16,0-.15.16-.09A4,4,0,0,0,5,10.58c0-.06,0-.07-.08-.09A4.17,4.17,0,0,1,3.76,5.22c.05-.09.08-.16.18,0A11.69,11.69,0,0,0,9,8.72a11.18,11.18,0,0,0,3,.64c.12,0,.26.08.34,0s0-.21,0-.32a4.13,4.13,0,0,1,7-3.52.31.31,0,0,0,.3.07,8.66,8.66,0,0,0,2.31-.9L22,4.63a4.2,4.2,0,0,1-1.7,2.23.45.45,0,0,0,.23,0,8.62,8.62,0,0,0,1.86-.54.16.16,0,0,1,.12,0Z"/></svg>